<svg version="1.1" xmlns="http://www.w3.org/2000/svg" xmlns:xlink="http://www.w3.org/1999/xlink" width="628" height="828"><defs/><g><text fill="#eeeeee" stroke="none" font-family="Arial" font-size="24px" font-style="normal" font-weight="normal" text-decoration="none" x="0" y="0">UNREGISTERED</text><text fill="#eeeeee" stroke="none" font-family="Arial" font-size="24px" font-style="normal" font-weight="normal" text-decoration="none" x="0" y="30">UNREGISTERED</text><text fill="#eeeeee" stroke="none" font-family="Arial" font-size="24px" font-style="normal" font-weight="normal" text-decoration="none" x="0" y="60">UNREGISTERED</text><text fill="#eeeeee" stroke="none" font-family="Arial" font-size="24px" font-style="normal" font-weight="normal" text-decoration="none" x="0" y="90">UNREGISTERED</text><text fill="#eeeeee" stroke="none" font-family="Arial" font-size="24px" font-style="normal" font-weight="normal" text-decoration="none" x="0" y="120">UNREGISTERED</text><text fill="#eeeeee" stroke="none" font-family="Arial" font-size="24px" font-style="normal" font-weight="normal" text-decoration="none" x="0" y="150">UNREGISTERED</text><text fill="#eeeeee" stroke="none" font-family="Arial" font-size="24px" font-style="normal" font-weight="normal" text-decoration="none" x="0" y="180">UNREGISTERED</text><text fill="#eeeeee" stroke="none" font-family="Arial" font-size="24px" font-style="normal" font-weight="normal" text-decoration="none" x="0" y="210">UNREGISTERED</text><text fill="#eeeeee" stroke="none" font-family="Arial" font-size="24px" font-style="normal" font-weight="normal" text-decoration="none" x="0" y="240">UNREGISTERED</text><text fill="#eeeeee" stroke="none" font-family="Arial" font-size="24px" font-style="normal" font-weight="normal" text-decoration="none" x="0" y="270">UNREGISTERED</text><text fill="#eeeeee" stroke="none" font-family="Arial" font-size="24px" font-style="normal" font-weight="normal" text-decoration="none" x="0" y="300">UNREGISTERED</text><text fill="#eeeeee" stroke="none" font-family="Arial" font-size="24px" font-style="normal" font-weight="normal" text-decoration="none" x="0" y="330">UNREGISTERED</text><text fill="#eeeeee" stroke="none" font-family="Arial" font-size="24px" font-style="normal" font-weight="normal" text-decoration="none" x="0" y="360">UNREGISTERED</text><text fill="#eeeeee" stroke="none" font-family="Arial" font-size="24px" font-style="normal" font-weight="normal" text-decoration="none" x="0" y="390">UNREGISTERED</text><text fill="#eeeeee" stroke="none" font-family="Arial" font-size="24px" font-style="normal" font-weight="normal" text-decoration="none" x="0" y="420">UNREGISTERED</text><text fill="#eeeeee" stroke="none" font-family="Arial" font-size="24px" font-style="normal" font-weight="normal" text-decoration="none" x="0" y="450">UNREGISTERED</text><text fill="#eeeeee" stroke="none" font-family="Arial" font-size="24px" font-style="normal" font-weight="normal" text-decoration="none" x="0" y="480">UNREGISTERED</text><text fill="#eeeeee" stroke="none" font-family="Arial" font-size="24px" font-style="normal" font-weight="normal" text-decoration="none" x="0" y="510">UNREGISTERED</text><text fill="#eeeeee" stroke="none" font-family="Arial" font-size="24px" font-style="normal" font-weight="normal" text-decoration="none" x="0" y="540">UNREGISTERED</text><text fill="#eeeeee" stroke="none" font-family="Arial" font-size="24px" font-style="normal" font-weight="normal" text-decoration="none" x="0" y="570">UNREGISTERED</text><text fill="#eeeeee" stroke="none" font-family="Arial" font-size="24px" font-style="normal" font-weight="normal" text-decoration="none" x="0" y="600">UNREGISTERED</text><text fill="#eeeeee" stroke="none" font-family="Arial" font-size="24px" font-style="normal" font-weight="normal" text-decoration="none" x="0" y="630">UNREGISTERED</text><text fill="#eeeeee" stroke="none" font-family="Arial" font-size="24px" font-style="normal" font-weight="normal" text-decoration="none" x="0" y="660">UNREGISTERED</text><text fill="#eeeeee" stroke="none" font-family="Arial" font-size="24px" font-style="normal" font-weight="normal" text-decoration="none" x="0" y="690">UNREGISTERED</text><text fill="#eeeeee" stroke="none" font-family="Arial" font-size="24px" font-style="normal" font-weight="normal" text-decoration="none" x="0" y="720">UNREGISTERED</text><text fill="#eeeeee" stroke="none" font-family="Arial" font-size="24px" font-style="normal" font-weight="normal" text-decoration="none" x="0" y="750">UNREGISTERED</text><text fill="#eeeeee" stroke="none" font-family="Arial" font-size="24px" font-style="normal" font-weight="normal" text-decoration="none" x="0" y="780">UNREGISTERED</text><text fill="#eeeeee" stroke="none" font-family="Arial" font-size="24px" font-style="normal" font-weight="normal" text-decoration="none" x="0" y="810">UNREGISTERED</text><text fill="#eeeeee" stroke="none" font-family="Arial" font-size="24px" font-style="normal" font-weight="normal" text-decoration="none" x="200" y="0">UNREGISTERED</text><text fill="#eeeeee" stroke="none" font-family="Arial" font-size="24px" font-style="normal" font-weight="normal" text-decoration="none" x="200" y="30">UNREGISTERED</text><text fill="#eeeeee" stroke="none" font-family="Arial" font-size="24px" font-style="normal" font-weight="normal" text-decoration="none" x="200" y="60">UNREGISTERED</text><text fill="#eeeeee" stroke="none" font-family="Arial" font-size="24px" font-style="normal" font-weight="normal" text-decoration="none" x="200" y="90">UNREGISTERED</text><text fill="#eeeeee" stroke="none" font-family="Arial" font-size="24px" font-style="normal" font-weight="normal" text-decoration="none" x="200" y="120">UNREGISTERED</text><text fill="#eeeeee" stroke="none" font-family="Arial" font-size="24px" font-style="normal" font-weight="normal" text-decoration="none" x="200" y="150">UNREGISTERED</text><text fill="#eeeeee" stroke="none" font-family="Arial" font-size="24px" font-style="normal" font-weight="normal" text-decoration="none" x="200" y="180">UNREGISTERED</text><text fill="#eeeeee" stroke="none" font-family="Arial" font-size="24px" font-style="normal" font-weight="normal" text-decoration="none" x="200" y="210">UNREGISTERED</text><text fill="#eeeeee" stroke="none" font-family="Arial" font-size="24px" font-style="normal" font-weight="normal" text-decoration="none" x="200" y="240">UNREGISTERED</text><text fill="#eeeeee" stroke="none" font-family="Arial" font-size="24px" font-style="normal" font-weight="normal" text-decoration="none" x="200" y="270">UNREGISTERED</text><text fill="#eeeeee" stroke="none" font-family="Arial" font-size="24px" font-style="normal" font-weight="normal" text-decoration="none" x="200" y="300">UNREGISTERED</text><text fill="#eeeeee" stroke="none" font-family="Arial" font-size="24px" font-style="normal" font-weight="normal" text-decoration="none" x="200" y="330">UNREGISTERED</text><text fill="#eeeeee" stroke="none" font-family="Arial" font-size="24px" font-style="normal" font-weight="normal" text-decoration="none" x="200" y="360">UNREGISTERED</text><text fill="#eeeeee" stroke="none" font-family="Arial" font-size="24px" font-style="normal" font-weight="normal" text-decoration="none" x="200" y="390">UNREGISTERED</text><text fill="#eeeeee" stroke="none" font-family="Arial" font-size="24px" font-style="normal" font-weight="normal" text-decoration="none" x="200" y="420">UNREGISTERED</text><text fill="#eeeeee" stroke="none" font-family="Arial" font-size="24px" font-style="normal" font-weight="normal" text-decoration="none" x="200" y="450">UNREGISTERED</text><text fill="#eeeeee" stroke="none" font-family="Arial" font-size="24px" font-style="normal" font-weight="normal" text-decoration="none" x="200" y="480">UNREGISTERED</text><text fill="#eeeeee" stroke="none" font-family="Arial" font-size="24px" font-style="normal" font-weight="normal" text-decoration="none" x="200" y="510">UNREGISTERED</text><text fill="#eeeeee" stroke="none" font-family="Arial" font-size="24px" font-style="normal" font-weight="normal" text-decoration="none" x="200" y="540">UNREGISTERED</text><text fill="#eeeeee" stroke="none" font-family="Arial" font-size="24px" font-style="normal" font-weight="normal" text-decoration="none" x="200" y="570">UNREGISTERED</text><text fill="#eeeeee" stroke="none" font-family="Arial" font-size="24px" font-style="normal" font-weight="normal" text-decoration="none" x="200" y="600">UNREGISTERED</text><text fill="#eeeeee" stroke="none" font-family="Arial" font-size="24px" font-style="normal" font-weight="normal" text-decoration="none" x="200" y="630">UNREGISTERED</text><text fill="#eeeeee" stroke="none" font-family="Arial" font-size="24px" font-style="normal" font-weight="normal" text-decoration="none" x="200" y="660">UNREGISTERED</text><text fill="#eeeeee" stroke="none" font-family="Arial" font-size="24px" font-style="normal" font-weight="normal" text-decoration="none" x="200" y="690">UNREGISTERED</text><text fill="#eeeeee" stroke="none" font-family="Arial" font-size="24px" font-style="normal" font-weight="normal" text-decoration="none" x="200" y="720">UNREGISTERED</text><text fill="#eeeeee" stroke="none" font-family="Arial" font-size="24px" font-style="normal" font-weight="normal" text-decoration="none" x="200" y="750">UNREGISTERED</text><text fill="#eeeeee" stroke="none" font-family="Arial" font-size="24px" font-style="normal" font-weight="normal" text-decoration="none" x="200" y="780">UNREGISTERED</text><text fill="#eeeeee" stroke="none" font-family="Arial" font-size="24px" font-style="normal" font-weight="normal" text-decoration="none" x="200" y="810">UNREGISTERED</text><text fill="#eeeeee" stroke="none" font-family="Arial" font-size="24px" font-style="normal" font-weight="normal" text-decoration="none" x="400" y="0">UNREGISTERED</text><text fill="#eeeeee" stroke="none" font-family="Arial" font-size="24px" font-style="normal" font-weight="normal" text-decoration="none" x="400" y="30">UNREGISTERED</text><text fill="#eeeeee" stroke="none" font-family="Arial" font-size="24px" font-style="normal" font-weight="normal" text-decoration="none" x="400" y="60">UNREGISTERED</text><text fill="#eeeeee" stroke="none" font-family="Arial" font-size="24px" font-style="normal" font-weight="normal" text-decoration="none" x="400" y="90">UNREGISTERED</text><text fill="#eeeeee" stroke="none" font-family="Arial" font-size="24px" font-style="normal" font-weight="normal" text-decoration="none" x="400" y="120">UNREGISTERED</text><text fill="#eeeeee" stroke="none" font-family="Arial" font-size="24px" font-style="normal" font-weight="normal" text-decoration="none" x="400" y="150">UNREGISTERED</text><text fill="#eeeeee" stroke="none" font-family="Arial" font-size="24px" font-style="normal" font-weight="normal" text-decoration="none" x="400" y="180">UNREGISTERED</text><text fill="#eeeeee" stroke="none" font-family="Arial" font-size="24px" font-style="normal" font-weight="normal" text-decoration="none" x="400" y="210">UNREGISTERED</text><text fill="#eeeeee" stroke="none" font-family="Arial" font-size="24px" font-style="normal" font-weight="normal" text-decoration="none" x="400" y="240">UNREGISTERED</text><text fill="#eeeeee" stroke="none" font-family="Arial" font-size="24px" font-style="normal" font-weight="normal" text-decoration="none" x="400" y="270">UNREGISTERED</text><text fill="#eeeeee" stroke="none" font-family="Arial" font-size="24px" font-style="normal" font-weight="normal" text-decoration="none" x="400" y="300">UNREGISTERED</text><text fill="#eeeeee" stroke="none" font-family="Arial" font-size="24px" font-style="normal" font-weight="normal" text-decoration="none" x="400" y="330">UNREGISTERED</text><text fill="#eeeeee" stroke="none" font-family="Arial" font-size="24px" font-style="normal" font-weight="normal" text-decoration="none" x="400" y="360">UNREGISTERED</text><text fill="#eeeeee" stroke="none" font-family="Arial" font-size="24px" font-style="normal" font-weight="normal" text-decoration="none" x="400" y="390">UNREGISTERED</text><text fill="#eeeeee" stroke="none" font-family="Arial" font-size="24px" font-style="normal" font-weight="normal" text-decoration="none" x="400" y="420">UNREGISTERED</text><text fill="#eeeeee" stroke="none" font-family="Arial" font-size="24px" font-style="normal" font-weight="normal" text-decoration="none" x="400" y="450">UNREGISTERED</text><text fill="#eeeeee" stroke="none" font-family="Arial" font-size="24px" font-style="normal" font-weight="normal" text-decoration="none" x="400" y="480">UNREGISTERED</text><text fill="#eeeeee" stroke="none" font-family="Arial" font-size="24px" font-style="normal" font-weight="normal" text-decoration="none" x="400" y="510">UNREGISTERED</text><text fill="#eeeeee" stroke="none" font-family="Arial" font-size="24px" font-style="normal" font-weight="normal" text-decoration="none" x="400" y="540">UNREGISTERED</text><text fill="#eeeeee" stroke="none" font-family="Arial" font-size="24px" font-style="normal" font-weight="normal" text-decoration="none" x="400" y="570">UNREGISTERED</text><text fill="#eeeeee" stroke="none" font-family="Arial" font-size="24px" font-style="normal" font-weight="normal" text-decoration="none" x="400" y="600">UNREGISTERED</text><text fill="#eeeeee" stroke="none" font-family="Arial" font-size="24px" font-style="normal" font-weight="normal" text-decoration="none" x="400" y="630">UNREGISTERED</text><text fill="#eeeeee" stroke="none" font-family="Arial" font-size="24px" font-style="normal" font-weight="normal" text-decoration="none" x="400" y="660">UNREGISTERED</text><text fill="#eeeeee" stroke="none" font-family="Arial" font-size="24px" font-style="normal" font-weight="normal" text-decoration="none" x="400" y="690">UNREGISTERED</text><text fill="#eeeeee" stroke="none" font-family="Arial" font-size="24px" font-style="normal" font-weight="normal" text-decoration="none" x="400" y="720">UNREGISTERED</text><text fill="#eeeeee" stroke="none" font-family="Arial" font-size="24px" font-style="normal" font-weight="normal" text-decoration="none" x="400" y="750">UNREGISTERED</text><text fill="#eeeeee" stroke="none" font-family="Arial" font-size="24px" font-style="normal" font-weight="normal" text-decoration="none" x="400" y="780">UNREGISTERED</text><text fill="#eeeeee" stroke="none" font-family="Arial" font-size="24px" font-style="normal" font-weight="normal" text-decoration="none" x="400" y="810">UNREGISTERED</text><text fill="#eeeeee" stroke="none" font-family="Arial" font-size="24px" font-style="normal" font-weight="normal" text-decoration="none" x="600" y="0">UNREGISTERED</text><text fill="#eeeeee" stroke="none" font-family="Arial" font-size="24px" font-style="normal" font-weight="normal" text-decoration="none" x="600" y="30">UNREGISTERED</text><text fill="#eeeeee" stroke="none" font-family="Arial" font-size="24px" font-style="normal" font-weight="normal" text-decoration="none" x="600" y="60">UNREGISTERED</text><text fill="#eeeeee" stroke="none" font-family="Arial" font-size="24px" font-style="normal" font-weight="normal" text-decoration="none" x="600" y="90">UNREGISTERED</text><text fill="#eeeeee" stroke="none" font-family="Arial" font-size="24px" font-style="normal" font-weight="normal" text-decoration="none" x="600" y="120">UNREGISTERED</text><text fill="#eeeeee" stroke="none" font-family="Arial" font-size="24px" font-style="normal" font-weight="normal" text-decoration="none" x="600" y="150">UNREGISTERED</text><text fill="#eeeeee" stroke="none" font-family="Arial" font-size="24px" font-style="normal" font-weight="normal" text-decoration="none" x="600" y="180">UNREGISTERED</text><text fill="#eeeeee" stroke="none" font-family="Arial" font-size="24px" font-style="normal" font-weight="normal" text-decoration="none" x="600" y="210">UNREGISTERED</text><text fill="#eeeeee" stroke="none" font-family="Arial" font-size="24px" font-style="normal" font-weight="normal" text-decoration="none" x="600" y="240">UNREGISTERED</text><text fill="#eeeeee" stroke="none" font-family="Arial" font-size="24px" font-style="normal" font-weight="normal" text-decoration="none" x="600" y="270">UNREGISTERED</text><text fill="#eeeeee" stroke="none" font-family="Arial" font-size="24px" font-style="normal" font-weight="normal" text-decoration="none" x="600" y="300">UNREGISTERED</text><text fill="#eeeeee" stroke="none" font-family="Arial" font-size="24px" font-style="normal" font-weight="normal" text-decoration="none" x="600" y="330">UNREGISTERED</text><text fill="#eeeeee" stroke="none" font-family="Arial" font-size="24px" font-style="normal" font-weight="normal" text-decoration="none" x="600" y="360">UNREGISTERED</text><text fill="#eeeeee" stroke="none" font-family="Arial" font-size="24px" font-style="normal" font-weight="normal" text-decoration="none" x="600" y="390">UNREGISTERED</text><text fill="#eeeeee" stroke="none" font-family="Arial" font-size="24px" font-style="normal" font-weight="normal" text-decoration="none" x="600" y="420">UNREGISTERED</text><text fill="#eeeeee" stroke="none" font-family="Arial" font-size="24px" font-style="normal" font-weight="normal" text-decoration="none" x="600" y="450">UNREGISTERED</text><text fill="#eeeeee" stroke="none" font-family="Arial" font-size="24px" font-style="normal" font-weight="normal" text-decoration="none" x="600" y="480">UNREGISTERED</text><text fill="#eeeeee" stroke="none" font-family="Arial" font-size="24px" font-style="normal" font-weight="normal" text-decoration="none" x="600" y="510">UNREGISTERED</text><text fill="#eeeeee" stroke="none" font-family="Arial" font-size="24px" font-style="normal" font-weight="normal" text-decoration="none" x="600" y="540">UNREGISTERED</text><text fill="#eeeeee" stroke="none" font-family="Arial" font-size="24px" font-style="normal" font-weight="normal" text-decoration="none" x="600" y="570">UNREGISTERED</text><text fill="#eeeeee" stroke="none" font-family="Arial" font-size="24px" font-style="normal" font-weight="normal" text-decoration="none" x="600" y="600">UNREGISTERED</text><text fill="#eeeeee" stroke="none" font-family="Arial" font-size="24px" font-style="normal" font-weight="normal" text-decoration="none" x="600" y="630">UNREGISTERED</text><text fill="#eeeeee" stroke="none" font-family="Arial" font-size="24px" font-style="normal" font-weight="normal" text-decoration="none" x="600" y="660">UNREGISTERED</text><text fill="#eeeeee" stroke="none" font-family="Arial" font-size="24px" font-style="normal" font-weight="normal" text-decoration="none" x="600" y="690">UNREGISTERED</text><text fill="#eeeeee" stroke="none" font-family="Arial" font-size="24px" font-style="normal" font-weight="normal" text-decoration="none" x="600" y="720">UNREGISTERED</text><text fill="#eeeeee" stroke="none" font-family="Arial" font-size="24px" font-style="normal" font-weight="normal" text-decoration="none" x="600" y="750">UNREGISTERED</text><text fill="#eeeeee" stroke="none" font-family="Arial" font-size="24px" font-style="normal" font-weight="normal" text-decoration="none" x="600" y="780">UNREGISTERED</text><text fill="#eeeeee" stroke="none" font-family="Arial" font-size="24px" font-style="normal" font-weight="normal" text-decoration="none" x="600" y="810">UNREGISTERED</text><g transform="translate(-230,-38) scale(1,1)"><rect fill="#C0C0C0" stroke="none" x="447" y="55" width="408" height="808" opacity="0.2"/></g><g transform="translate(-230,-38) scale(1,1)"><rect fill="#ffffff" stroke="none" x="440" y="48" width="408" height="808"/></g><g transform="translate(-230,-38) scale(1,1)"><path fill="none" stroke="#000000" d="M 440 48 L 848 48 L 848 856 L 440 856 L 440 48 Z Z" stroke-miterlimit="10"/></g><g transform="translate(-230,-38) scale(1,1)"><g><path fill="none" stroke="none"/><text fill="#000000" stroke="none" font-family="Arial" font-size="13px" font-style="normal" font-weight="bold" text-decoration="none" x="570.452880859375" y="67.5">INFORMATION SYSTEM</text></g></g><g transform="translate(-230,-38) scale(1,1)"><path fill="#C0C0C0" stroke="none" d="M 551 504 C 551 494.6111584 593.9806592 487 647 487 C 700.0193408 487 743 494.6111584 743 504 C 743 513.3888416 700.0193408 521 647 521 C 593.9806592 521 551 513.3888416 551 504 Z" opacity="0.2"/></g><g transform="translate(-230,-38) scale(1,1)"><path fill="#ffffff" stroke="none" d="M 544 497 C 544 487.6111584 586.9806592 480 640 480 C 693.0193408 480 736 487.6111584 736 497 C 736 506.3888416 693.0193408 514 640 514 C 586.9806592 514 544 506.3888416 544 497 Z"/></g><g transform="translate(-230,-38) scale(1,1)"><path fill="none" stroke="#000000" d="M 544 497 C 544 487.6111584 586.9806592 480 640 480 C 693.0193408 480 736 487.6111584 736 497 C 736 506.3888416 693.0193408 514 640 514 C 586.9806592 514 544 506.3888416 544 497 Z" stroke-miterlimit="10"/></g><g transform="translate(-230,-38) scale(1,1)"><g><path fill="none" stroke="none"/><text fill="#000000" stroke="none" font-family="Arial" font-size="13px" font-style="normal" font-weight="bold" text-decoration="none" x="591.576904296875" y="504">Login to Account</text></g></g><g transform="translate(-230,-38) scale(1,1)"><path fill="#C0C0C0" stroke="none" d="M 567 632 C 567 622.6111584 603.936504 615 649.5 615 C 695.063496 615 732 622.6111584 732 632 C 732 641.3888416 695.063496 649 649.5 649 C 603.936504 649 567 641.3888416 567 632 Z" opacity="0.2"/></g><g transform="translate(-230,-38) scale(1,1)"><path fill="#ffffff" stroke="none" d="M 560 625 C 560 615.6111584 596.936504 608 642.5 608 C 688.063496 608 725 615.6111584 725 625 C 725 634.3888416 688.063496 642 642.5 642 C 596.936504 642 560 634.3888416 560 625 Z"/></g><g transform="translate(-230,-38) scale(1,1)"><path fill="none" stroke="#000000" d="M 560 625 C 560 615.6111584 596.936504 608 642.5 608 C 688.063496 608 725 615.6111584 725 625 C 725 634.3888416 688.063496 642 642.5 642 C 596.936504 642 560 634.3888416 560 625 Z" stroke-miterlimit="10"/></g><g transform="translate(-230,-38) scale(1,1)"><g><path fill="none" stroke="none"/><text fill="#000000" stroke="none" font-family="Arial" font-size="13px" font-style="normal" font-weight="bold" text-decoration="none" x="593.004150390625" y="632">Register Account</text></g></g><g transform="translate(-230,-38) scale(1,1)"><path fill="#ffffff" stroke="none" d="M 328.40935031960225 113.68 C 328.40935031960225 108.886167936 332.29519264454774 105 337.088623046875 105 C 341.88205344920226 105 345.76789577414775 108.886167936 345.76789577414775 113.68 C 345.76789577414775 118.473832064 341.88205344920226 122.36 337.088623046875 122.36 C 332.29519264454774 122.36 328.40935031960225 118.473832064 328.40935031960225 113.68 Z"/></g><g transform="translate(-230,-38) scale(1,1)"><path fill="none" stroke="#000000" d="M 328.40935031960225 113.68 C 328.40935031960225 108.886167936 332.29519264454774 105 337.088623046875 105 C 341.88205344920226 105 345.76789577414775 108.886167936 345.76789577414775 113.68 C 345.76789577414775 118.473832064 341.88205344920226 122.36 337.088623046875 122.36 C 332.29519264454774 122.36 328.40935031960225 118.473832064 328.40935031960225 113.68 Z" stroke-miterlimit="10"/></g><g transform="translate(-230,-38) scale(1,1)"><path fill="none" stroke="#000000" d="M 337.088623046875 122.36 L 337.088623046875 139.64" stroke-miterlimit="10"/></g><g transform="translate(-230,-38) scale(1,1)"><path fill="none" stroke="#000000" d="M 327.89880486505683 128.84 L 346.27844122869317 128.84" stroke-miterlimit="10"/></g><g transform="translate(-230,-38) scale(1,1)"><path fill="none" stroke="#000000" d="M 337.088623046875 139.64 L 324.32498668323865 157" stroke-miterlimit="10"/></g><g transform="translate(-230,-38) scale(1,1)"><path fill="none" stroke="#000000" d="M 337.088623046875 139.64 L 349.85225941051135 157" stroke-miterlimit="10"/></g><g transform="translate(-230,-38) scale(1,1)"><g><path fill="none" stroke="none"/><text fill="#000000" stroke="none" font-family="Arial" font-size="13px" font-style="normal" font-weight="bold" text-decoration="none" x="318.66455078125" y="177.5">Admin</text></g></g><g transform="translate(-230,-38) scale(1,1)"><path fill="#ffffff" stroke="none" d="M 256.40935031960225 585.6800000000001 C 256.40935031960225 580.8861679360001 260.29519264454774 577 265.088623046875 577 C 269.88205344920226 577 273.76789577414775 580.8861679360001 273.76789577414775 585.6800000000001 C 273.76789577414775 590.473832064 269.88205344920226 594.36 265.088623046875 594.36 C 260.29519264454774 594.36 256.40935031960225 590.473832064 256.40935031960225 585.6800000000001 Z"/></g><g transform="translate(-230,-38) scale(1,1)"><path fill="none" stroke="#000000" d="M 256.40935031960225 585.6800000000001 C 256.40935031960225 580.8861679360001 260.29519264454774 577 265.088623046875 577 C 269.88205344920226 577 273.76789577414775 580.8861679360001 273.76789577414775 585.6800000000001 C 273.76789577414775 590.473832064 269.88205344920226 594.36 265.088623046875 594.36 C 260.29519264454774 594.36 256.40935031960225 590.473832064 256.40935031960225 585.6800000000001 Z" stroke-miterlimit="10"/></g><g transform="translate(-230,-38) scale(1,1)"><path fill="none" stroke="#000000" d="M 265.088623046875 594.36 L 265.088623046875 611.64" stroke-miterlimit="10"/></g><g transform="translate(-230,-38) scale(1,1)"><path fill="none" stroke="#000000" d="M 255.89880486505683 600.84 L 274.27844122869317 600.84" stroke-miterlimit="10"/></g><g transform="translate(-230,-38) scale(1,1)"><path fill="none" stroke="#000000" d="M 265.088623046875 611.64 L 252.32498668323865 629" stroke-miterlimit="10"/></g><g transform="translate(-230,-38) scale(1,1)"><path fill="none" stroke="#000000" d="M 265.088623046875 611.64 L 277.85225941051135 629" stroke-miterlimit="10"/></g><g transform="translate(-230,-38) scale(1,1)"><g><path fill="none" stroke="none"/><text fill="#000000" stroke="none" font-family="Arial" font-size="13px" font-style="normal" font-weight="bold" text-decoration="none" x="251.364990234375" y="649.5">User</text></g></g><g transform="translate(-230,-38) scale(1,1)"><path fill="none" stroke="#000000" d="M 331 184 L 271 575" stroke-miterlimit="10"/></g><g transform="translate(-230,-38) scale(1,1)"><path fill="#FFFFFF" stroke="none" d="M 265.76126523749707 553.6328369199806 L 271 575 L 282.40452103319706 556.186789215996"/></g><g transform="translate(-230,-38) scale(1,1)"><path fill="none" stroke="#000000" d="M 265.76126523749707 553.6328369199806 L 271 575 L 282.40452103319706 556.186789215996 L 265.76126523749707 553.6328369199806" stroke-miterlimit="10"/></g><g transform="translate(-230,-38) scale(1,1)"><path fill="#ffffff" stroke="none" d="M 368.40935031960225 465.68 C 368.40935031960225 460.886167936 372.29519264454774 457 377.088623046875 457 C 381.88205344920226 457 385.76789577414775 460.886167936 385.76789577414775 465.68 C 385.76789577414775 470.473832064 381.88205344920226 474.36 377.088623046875 474.36 C 372.29519264454774 474.36 368.40935031960225 470.473832064 368.40935031960225 465.68 Z"/></g><g transform="translate(-230,-38) scale(1,1)"><path fill="none" stroke="#000000" d="M 368.40935031960225 465.68 C 368.40935031960225 460.886167936 372.29519264454774 457 377.088623046875 457 C 381.88205344920226 457 385.76789577414775 460.886167936 385.76789577414775 465.68 C 385.76789577414775 470.473832064 381.88205344920226 474.36 377.088623046875 474.36 C 372.29519264454774 474.36 368.40935031960225 470.473832064 368.40935031960225 465.68 Z" stroke-miterlimit="10"/></g><g transform="translate(-230,-38) scale(1,1)"><path fill="none" stroke="#000000" d="M 377.088623046875 474.36 L 377.088623046875 491.64" stroke-miterlimit="10"/></g><g transform="translate(-230,-38) scale(1,1)"><path fill="none" stroke="#000000" d="M 367.89880486505683 480.84 L 386.27844122869317 480.84" stroke-miterlimit="10"/></g><g transform="translate(-230,-38) scale(1,1)"><path fill="none" stroke="#000000" d="M 377.088623046875 491.64 L 364.32498668323865 509" stroke-miterlimit="10"/></g><g transform="translate(-230,-38) scale(1,1)"><path fill="none" stroke="#000000" d="M 377.088623046875 491.64 L 389.85225941051135 509" stroke-miterlimit="10"/></g><g transform="translate(-230,-38) scale(1,1)"><g><path fill="none" stroke="none"/><text fill="#000000" stroke="none" font-family="Arial" font-size="13px" font-style="normal" font-weight="bold" text-decoration="none" x="360.470458984375" y="529.5">Client</text></g></g><g transform="translate(-230,-38) scale(1,1)"><path fill="none" stroke="#000000" d="M 351 523 L 291 587" stroke-miterlimit="10"/></g><g transform="translate(-230,-38) scale(1,1)"><path fill="#FFFFFF" stroke="none" d="M 298.75934300015086 566.4137765433771 L 291 587 L 311.04334225815865 577.9300258477595"/></g><g transform="translate(-230,-38) scale(1,1)"><path fill="none" stroke="#000000" d="M 298.75934300015086 566.4137765433771 L 291 587 L 311.04334225815865 577.9300258477595 L 298.75934300015086 566.4137765433771" stroke-miterlimit="10"/></g><g transform="translate(-230,-38) scale(1,1)"><path fill="#C0C0C0" stroke="none" d="M 511 216 C 511 206.6111584 560.0248144 199 620.5 199 C 680.9751856 199 730 206.6111584 730 216 C 730 225.3888416 680.9751856 233 620.5 233 C 560.0248144 233 511 225.3888416 511 216 Z" opacity="0.2"/></g><g transform="translate(-230,-38) scale(1,1)"><path fill="#ffffff" stroke="none" d="M 504 209 C 504 199.6111584 553.0248144 192 613.5 192 C 673.9751856 192 723 199.6111584 723 209 C 723 218.3888416 673.9751856 226 613.5 226 C 553.0248144 226 504 218.3888416 504 209 Z"/></g><g transform="translate(-230,-38) scale(1,1)"><path fill="none" stroke="#000000" d="M 504 209 C 504 199.6111584 553.0248144 192 613.5 192 C 673.9751856 192 723 199.6111584 723 209 C 723 218.3888416 673.9751856 226 613.5 226 C 553.0248144 226 504 218.3888416 504 209 Z" stroke-miterlimit="10"/></g><g transform="translate(-230,-38) scale(1,1)"><g><path fill="none" stroke="none"/><text fill="#000000" stroke="none" font-family="Arial" font-size="13px" font-style="normal" font-weight="bold" text-decoration="none" x="544.86279296875" y="216">Manage Form Structure</text></g></g><g transform="translate(-230,-38) scale(1,1)"><path fill="none" stroke="#000000" d="M 291 607 L 583 515" stroke-miterlimit="10"/></g><g transform="translate(-230,-38) scale(1,1)"><path fill="none" stroke="#000000" d="M 291 616 L 559 623" stroke-miterlimit="10"/></g><g transform="translate(-230,-38) scale(1,1)"><path fill="#C0C0C0" stroke="none" d="M 535 424 C 535 414.6111584 582.4578112 407 641 407 C 699.5421888 407 747 414.6111584 747 424 C 747 433.3888416 699.5421888 441 641 441 C 582.4578112 441 535 433.3888416 535 424 Z" opacity="0.2"/></g><g transform="translate(-230,-38) scale(1,1)"><path fill="#ffffff" stroke="none" d="M 528 417 C 528 407.6111584 575.4578112 400 634 400 C 692.5421888 400 740 407.6111584 740 417 C 740 426.3888416 692.5421888 434 634 434 C 575.4578112 434 528 426.3888416 528 417 Z"/></g><g transform="translate(-230,-38) scale(1,1)"><path fill="none" stroke="#000000" d="M 528 417 C 528 407.6111584 575.4578112 400 634 400 C 692.5421888 400 740 407.6111584 740 417 C 740 426.3888416 692.5421888 434 634 434 C 575.4578112 434 528 426.3888416 528 417 Z" stroke-miterlimit="10"/></g><g transform="translate(-230,-38) scale(1,1)"><g><path fill="none" stroke="none"/><text fill="#000000" stroke="none" font-family="Arial" font-size="13px" font-style="normal" font-weight="bold" text-decoration="none" x="567.162353515625" y="424">Manage Form Instance</text></g></g><g transform="translate(-230,-38) scale(1,1)"><path fill="#C0C0C0" stroke="none" d="M 567 688 C 567 678.6111584 601.697928 671 644.5 671 C 687.302072 671 722 678.6111584 722 688 C 722 697.3888416 687.302072 705 644.5 705 C 601.697928 705 567 697.3888416 567 688 Z" opacity="0.2"/></g><g transform="translate(-230,-38) scale(1,1)"><path fill="#ffffff" stroke="none" d="M 560 681 C 560 671.6111584 594.697928 664 637.5 664 C 680.302072 664 715 671.6111584 715 681 C 715 690.3888416 680.302072 698 637.5 698 C 594.697928 698 560 690.3888416 560 681 Z"/></g><g transform="translate(-230,-38) scale(1,1)"><path fill="none" stroke="#000000" d="M 560 681 C 560 671.6111584 594.697928 664 637.5 664 C 680.302072 664 715 671.6111584 715 681 C 715 690.3888416 680.302072 698 637.5 698 C 594.697928 698 560 690.3888416 560 681 Z" stroke-miterlimit="10"/></g><g transform="translate(-230,-38) scale(1,1)"><g><path fill="none" stroke="none"/><text fill="#000000" stroke="none" font-family="Arial" font-size="13px" font-style="normal" font-weight="bold" text-decoration="none" x="590.175048828125" y="688">Reset Password</text></g></g><g transform="translate(-230,-38) scale(1,1)"><path fill="none" stroke="#000000" d="M 291 620 L 559 667" stroke-miterlimit="10"/></g><g transform="translate(-230,-38) scale(1,1)"><path fill="none" stroke="#000000" d="M 403 487 L 575 435" stroke-miterlimit="10"/></g><g transform="translate(-230,-38) scale(1,1)"><path fill="none" stroke="#000000" d="M 363 149 L 538 191" stroke-miterlimit="10"/></g><g transform="translate(-230,-38) scale(1,1)"><path fill="#C0C0C0" stroke="none" d="M 551 752 C 551 742.6111584 591.9659408 735 642.5 735 C 693.0340592 735 734 742.6111584 734 752 C 734 761.3888416 693.0340592 769 642.5 769 C 591.9659408 769 551 761.3888416 551 752 Z" opacity="0.2"/></g><g transform="translate(-230,-38) scale(1,1)"><path fill="#ffffff" stroke="none" d="M 544 745 C 544 735.6111584 584.9659408 728 635.5 728 C 686.0340592 728 727 735.6111584 727 745 C 727 754.3888416 686.0340592 762 635.5 762 C 584.9659408 762 544 754.3888416 544 745 Z"/></g><g transform="translate(-230,-38) scale(1,1)"><path fill="none" stroke="#000000" d="M 544 745 C 544 735.6111584 584.9659408 728 635.5 728 C 686.0340592 728 727 735.6111584 727 745 C 727 754.3888416 686.0340592 762 635.5 762 C 584.9659408 762 544 754.3888416 544 745 Z" stroke-miterlimit="10"/></g><g transform="translate(-230,-38) scale(1,1)"><g><path fill="none" stroke="none"/><text fill="#000000" stroke="none" font-family="Arial" font-size="13px" font-style="normal" font-weight="bold" text-decoration="none" x="578.425048828125" y="752">Search Form Model</text></g></g><g transform="translate(-230,-38) scale(1,1)"><path fill="none" stroke="#000000" d="M 291 624 L 584 727" stroke-miterlimit="10"/></g><g transform="translate(-230,-38) scale(1,1)"><path fill="#ffffff" stroke="none" d="M 360.40935031960225 329.68 C 360.40935031960225 324.886167936 364.29519264454774 321 369.088623046875 321 C 373.88205344920226 321 377.76789577414775 324.886167936 377.76789577414775 329.68 C 377.76789577414775 334.473832064 373.88205344920226 338.36 369.088623046875 338.36 C 364.29519264454774 338.36 360.40935031960225 334.473832064 360.40935031960225 329.68 Z"/></g><g transform="translate(-230,-38) scale(1,1)"><path fill="none" stroke="#000000" d="M 360.40935031960225 329.68 C 360.40935031960225 324.886167936 364.29519264454774 321 369.088623046875 321 C 373.88205344920226 321 377.76789577414775 324.886167936 377.76789577414775 329.68 C 377.76789577414775 334.473832064 373.88205344920226 338.36 369.088623046875 338.36 C 364.29519264454774 338.36 360.40935031960225 334.473832064 360.40935031960225 329.68 Z" stroke-miterlimit="10"/></g><g transform="translate(-230,-38) scale(1,1)"><path fill="none" stroke="#000000" d="M 369.088623046875 338.36 L 369.088623046875 355.64" stroke-miterlimit="10"/></g><g transform="translate(-230,-38) scale(1,1)"><path fill="none" stroke="#000000" d="M 359.89880486505683 344.84 L 378.27844122869317 344.84" stroke-miterlimit="10"/></g><g transform="translate(-230,-38) scale(1,1)"><path fill="none" stroke="#000000" d="M 369.088623046875 355.64 L 356.32498668323865 373" stroke-miterlimit="10"/></g><g transform="translate(-230,-38) scale(1,1)"><path fill="none" stroke="#000000" d="M 369.088623046875 355.64 L 381.85225941051135 373" stroke-miterlimit="10"/></g><g transform="translate(-230,-38) scale(1,1)"><g><path fill="none" stroke="none"/><text fill="#000000" stroke="none" font-family="Arial" font-size="13px" font-style="normal" font-weight="bold" text-decoration="none" x="355.837890625" y="393.5">Staff</text></g></g><g transform="translate(-230,-38) scale(1,1)"><path fill="none" stroke="#000000" d="M 352 400 L 281 575" stroke-miterlimit="10"/></g><g transform="translate(-230,-38) scale(1,1)"><path fill="#FFFFFF" stroke="none" d="M 280.8399222988121 553.0005823911272 L 281 575 L 296.44274534536197 559.3308705985846"/></g><g transform="translate(-230,-38) scale(1,1)"><path fill="none" stroke="#000000" d="M 280.8399222988121 553.0005823911272 L 281 575 L 296.44274534536197 559.3308705985846 L 280.8399222988121 553.0005823911272" stroke-miterlimit="10"/></g><g transform="translate(-230,-38) scale(1,1)"><path fill="#C0C0C0" stroke="none" d="M 511 120 C 511 110.6111584 557.3385232 103 614.5 103 C 671.6614768 103 718 110.6111584 718 120 C 718 129.3888416 671.6614768 137 614.5 137 C 557.3385232 137 511 129.3888416 511 120 Z" opacity="0.2"/></g><g transform="translate(-230,-38) scale(1,1)"><path fill="#ffffff" stroke="none" d="M 504 113 C 504 103.6111584 550.3385232 96 607.5 96 C 664.6614768 96 711 103.6111584 711 113 C 711 122.3888416 664.6614768 130 607.5 130 C 550.3385232 130 504 122.3888416 504 113 Z"/></g><g transform="translate(-230,-38) scale(1,1)"><path fill="none" stroke="#000000" d="M 504 113 C 504 103.6111584 550.3385232 96 607.5 96 C 664.6614768 96 711 103.6111584 711 113 C 711 122.3888416 664.6614768 130 607.5 130 C 550.3385232 130 504 122.3888416 504 113 Z" stroke-miterlimit="10"/></g><g transform="translate(-230,-38) scale(1,1)"><g><path fill="none" stroke="none"/><text fill="#000000" stroke="none" font-family="Arial" font-size="13px" font-style="normal" font-weight="bold" text-decoration="none" x="568.953857421875" y="120">Manage Staff</text></g></g><g transform="translate(-230,-38) scale(1,1)"><path fill="none" stroke="#000000" d="M 363 140 L 503 125" stroke-miterlimit="10"/></g><g transform="translate(-230,-38) scale(1,1)"><path fill="#C0C0C0" stroke="none" d="M 559 568 C 559 558.6111584 598.8466528 551 648 551 C 697.1533472 551 737 558.6111584 737 568 C 737 577.3888416 697.1533472 585 648 585 C 598.8466528 585 559 577.3888416 559 568 Z" opacity="0.2"/></g><g transform="translate(-230,-38) scale(1,1)"><path fill="#ffffff" stroke="none" d="M 552 561 C 552 551.6111584 591.8466528 544 641 544 C 690.1533472 544 730 551.6111584 730 561 C 730 570.3888416 690.1533472 578 641 578 C 591.8466528 578 552 570.3888416 552 561 Z"/></g><g transform="translate(-230,-38) scale(1,1)"><path fill="none" stroke="#000000" d="M 552 561 C 552 551.6111584 591.8466528 544 641 544 C 690.1533472 544 730 551.6111584 730 561 C 730 570.3888416 690.1533472 578 641 578 C 591.8466528 578 552 570.3888416 552 561 Z" stroke-miterlimit="10"/></g><g transform="translate(-230,-38) scale(1,1)"><g><path fill="none" stroke="none"/><text fill="#000000" stroke="none" font-family="Arial" font-size="13px" font-style="normal" font-weight="bold" text-decoration="none" x="595.826904296875" y="568">Logout Account</text></g></g><g transform="translate(-230,-38) scale(1,1)"><path fill="none" stroke="#000000" d="M 291 611 L 551 574" stroke-miterlimit="10"/></g><g transform="translate(-230,-38) scale(1,1)"><path fill="#C0C0C0" stroke="none" d="M 511 168 C 511 158.6111584 557.3385232 151 614.5 151 C 671.6614768 151 718 158.6111584 718 168 C 718 177.3888416 671.6614768 185 614.5 185 C 557.3385232 185 511 177.3888416 511 168 Z" opacity="0.2"/></g><g transform="translate(-230,-38) scale(1,1)"><path fill="#ffffff" stroke="none" d="M 504 161 C 504 151.6111584 550.3385232 144 607.5 144 C 664.6614768 144 711 151.6111584 711 161 C 711 170.3888416 664.6614768 178 607.5 178 C 550.3385232 178 504 170.3888416 504 161 Z"/></g><g transform="translate(-230,-38) scale(1,1)"><path fill="none" stroke="#000000" d="M 504 161 C 504 151.6111584 550.3385232 144 607.5 144 C 664.6614768 144 711 151.6111584 711 161 C 711 170.3888416 664.6614768 178 607.5 178 C 550.3385232 178 504 170.3888416 504 161 Z" stroke-miterlimit="10"/></g><g transform="translate(-230,-38) scale(1,1)"><g><path fill="none" stroke="none"/><text fill="#000000" stroke="none" font-family="Arial" font-size="13px" font-style="normal" font-weight="bold" text-decoration="none" x="565.58642578125" y="168">Manage Client</text></g></g><g transform="translate(-230,-38) scale(1,1)"><path fill="none" stroke="#000000" d="M 363 145 L 503 154" stroke-miterlimit="10"/></g><g transform="translate(-230,-38) scale(1,1)"><path fill="none" stroke="#000000" d="M 395 365 L 552 399" stroke-miterlimit="10"/></g><g transform="translate(-230,-38) scale(1,1)"><path fill="#C0C0C0" stroke="none" d="M 511 260 C 511 250.6111584 559.8009568 243 620 243 C 680.1990432 243 729 250.6111584 729 260 C 729 269.3888416 680.1990432 277 620 277 C 559.8009568 277 511 269.3888416 511 260 Z" opacity="0.2"/></g><g transform="translate(-230,-38) scale(1,1)"><path fill="#ffffff" stroke="none" d="M 504 253 C 504 243.6111584 552.8009568 236 613 236 C 673.1990432 236 722 243.6111584 722 253 C 722 262.3888416 673.1990432 270 613 270 C 552.8009568 270 504 262.3888416 504 253 Z"/></g><g transform="translate(-230,-38) scale(1,1)"><path fill="none" stroke="#000000" d="M 504 253 C 504 243.6111584 552.8009568 236 613 236 C 673.1990432 236 722 243.6111584 722 253 C 722 262.3888416 673.1990432 270 613 270 C 552.8009568 270 504 262.3888416 504 253 Z" stroke-miterlimit="10"/></g><g transform="translate(-230,-38) scale(1,1)"><g><path fill="none" stroke="none"/><text fill="#000000" stroke="none" font-family="Arial" font-size="13px" font-style="normal" font-weight="bold" text-decoration="none" x="574.33642578125" y="260">Manage Role</text></g></g><g transform="translate(-230,-38) scale(1,1)"><path fill="none" stroke="#000000" d="M 363 159 L 456 216 L 537 235" stroke-miterlimit="10"/></g></g></svg>