<svg version="1.1" xmlns="http://www.w3.org/2000/svg" xmlns:xlink="http://www.w3.org/1999/xlink" width="556" height="516"><defs/><g><text fill="#eeeeee" stroke="none" font-family="Arial" font-size="24px" font-style="normal" font-weight="normal" text-decoration="none" x="0" y="0">UNREGISTERED</text><text fill="#eeeeee" stroke="none" font-family="Arial" font-size="24px" font-style="normal" font-weight="normal" text-decoration="none" x="0" y="30">UNREGISTERED</text><text fill="#eeeeee" stroke="none" font-family="Arial" font-size="24px" font-style="normal" font-weight="normal" text-decoration="none" x="0" y="60">UNREGISTERED</text><text fill="#eeeeee" stroke="none" font-family="Arial" font-size="24px" font-style="normal" font-weight="normal" text-decoration="none" x="0" y="90">UNREGISTERED</text><text fill="#eeeeee" stroke="none" font-family="Arial" font-size="24px" font-style="normal" font-weight="normal" text-decoration="none" x="0" y="120">UNREGISTERED</text><text fill="#eeeeee" stroke="none" font-family="Arial" font-size="24px" font-style="normal" font-weight="normal" text-decoration="none" x="0" y="150">UNREGISTERED</text><text fill="#eeeeee" stroke="none" font-family="Arial" font-size="24px" font-style="normal" font-weight="normal" text-decoration="none" x="0" y="180">UNREGISTERED</text><text fill="#eeeeee" stroke="none" font-family="Arial" font-size="24px" font-style="normal" font-weight="normal" text-decoration="none" x="0" y="210">UNREGISTERED</text><text fill="#eeeeee" stroke="none" font-family="Arial" font-size="24px" font-style="normal" font-weight="normal" text-decoration="none" x="0" y="240">UNREGISTERED</text><text fill="#eeeeee" stroke="none" font-family="Arial" font-size="24px" font-style="normal" font-weight="normal" text-decoration="none" x="0" y="270">UNREGISTERED</text><text fill="#eeeeee" stroke="none" font-family="Arial" font-size="24px" font-style="normal" font-weight="normal" text-decoration="none" x="0" y="300">UNREGISTERED</text><text fill="#eeeeee" stroke="none" font-family="Arial" font-size="24px" font-style="normal" font-weight="normal" text-decoration="none" x="0" y="330">UNREGISTERED</text><text fill="#eeeeee" stroke="none" font-family="Arial" font-size="24px" font-style="normal" font-weight="normal" text-decoration="none" x="0" y="360">UNREGISTERED</text><text fill="#eeeeee" stroke="none" font-family="Arial" font-size="24px" font-style="normal" font-weight="normal" text-decoration="none" x="0" y="390">UNREGISTERED</text><text fill="#eeeeee" stroke="none" font-family="Arial" font-size="24px" font-style="normal" font-weight="normal" text-decoration="none" x="0" y="420">UNREGISTERED</text><text fill="#eeeeee" stroke="none" font-family="Arial" font-size="24px" font-style="normal" font-weight="normal" text-decoration="none" x="0" y="450">UNREGISTERED</text><text fill="#eeeeee" stroke="none" font-family="Arial" font-size="24px" font-style="normal" font-weight="normal" text-decoration="none" x="0" y="480">UNREGISTERED</text><text fill="#eeeeee" stroke="none" font-family="Arial" font-size="24px" font-style="normal" font-weight="normal" text-decoration="none" x="0" y="510">UNREGISTERED</text><text fill="#eeeeee" stroke="none" font-family="Arial" font-size="24px" font-style="normal" font-weight="normal" text-decoration="none" x="200" y="0">UNREGISTERED</text><text fill="#eeeeee" stroke="none" font-family="Arial" font-size="24px" font-style="normal" font-weight="normal" text-decoration="none" x="200" y="30">UNREGISTERED</text><text fill="#eeeeee" stroke="none" font-family="Arial" font-size="24px" font-style="normal" font-weight="normal" text-decoration="none" x="200" y="60">UNREGISTERED</text><text fill="#eeeeee" stroke="none" font-family="Arial" font-size="24px" font-style="normal" font-weight="normal" text-decoration="none" x="200" y="90">UNREGISTERED</text><text fill="#eeeeee" stroke="none" font-family="Arial" font-size="24px" font-style="normal" font-weight="normal" text-decoration="none" x="200" y="120">UNREGISTERED</text><text fill="#eeeeee" stroke="none" font-family="Arial" font-size="24px" font-style="normal" font-weight="normal" text-decoration="none" x="200" y="150">UNREGISTERED</text><text fill="#eeeeee" stroke="none" font-family="Arial" font-size="24px" font-style="normal" font-weight="normal" text-decoration="none" x="200" y="180">UNREGISTERED</text><text fill="#eeeeee" stroke="none" font-family="Arial" font-size="24px" font-style="normal" font-weight="normal" text-decoration="none" x="200" y="210">UNREGISTERED</text><text fill="#eeeeee" stroke="none" font-family="Arial" font-size="24px" font-style="normal" font-weight="normal" text-decoration="none" x="200" y="240">UNREGISTERED</text><text fill="#eeeeee" stroke="none" font-family="Arial" font-size="24px" font-style="normal" font-weight="normal" text-decoration="none" x="200" y="270">UNREGISTERED</text><text fill="#eeeeee" stroke="none" font-family="Arial" font-size="24px" font-style="normal" font-weight="normal" text-decoration="none" x="200" y="300">UNREGISTERED</text><text fill="#eeeeee" stroke="none" font-family="Arial" font-size="24px" font-style="normal" font-weight="normal" text-decoration="none" x="200" y="330">UNREGISTERED</text><text fill="#eeeeee" stroke="none" font-family="Arial" font-size="24px" font-style="normal" font-weight="normal" text-decoration="none" x="200" y="360">UNREGISTERED</text><text fill="#eeeeee" stroke="none" font-family="Arial" font-size="24px" font-style="normal" font-weight="normal" text-decoration="none" x="200" y="390">UNREGISTERED</text><text fill="#eeeeee" stroke="none" font-family="Arial" font-size="24px" font-style="normal" font-weight="normal" text-decoration="none" x="200" y="420">UNREGISTERED</text><text fill="#eeeeee" stroke="none" font-family="Arial" font-size="24px" font-style="normal" font-weight="normal" text-decoration="none" x="200" y="450">UNREGISTERED</text><text fill="#eeeeee" stroke="none" font-family="Arial" font-size="24px" font-style="normal" font-weight="normal" text-decoration="none" x="200" y="480">UNREGISTERED</text><text fill="#eeeeee" stroke="none" font-family="Arial" font-size="24px" font-style="normal" font-weight="normal" text-decoration="none" x="200" y="510">UNREGISTERED</text><text fill="#eeeeee" stroke="none" font-family="Arial" font-size="24px" font-style="normal" font-weight="normal" text-decoration="none" x="400" y="0">UNREGISTERED</text><text fill="#eeeeee" stroke="none" font-family="Arial" font-size="24px" font-style="normal" font-weight="normal" text-decoration="none" x="400" y="30">UNREGISTERED</text><text fill="#eeeeee" stroke="none" font-family="Arial" font-size="24px" font-style="normal" font-weight="normal" text-decoration="none" x="400" y="60">UNREGISTERED</text><text fill="#eeeeee" stroke="none" font-family="Arial" font-size="24px" font-style="normal" font-weight="normal" text-decoration="none" x="400" y="90">UNREGISTERED</text><text fill="#eeeeee" stroke="none" font-family="Arial" font-size="24px" font-style="normal" font-weight="normal" text-decoration="none" x="400" y="120">UNREGISTERED</text><text fill="#eeeeee" stroke="none" font-family="Arial" font-size="24px" font-style="normal" font-weight="normal" text-decoration="none" x="400" y="150">UNREGISTERED</text><text fill="#eeeeee" stroke="none" font-family="Arial" font-size="24px" font-style="normal" font-weight="normal" text-decoration="none" x="400" y="180">UNREGISTERED</text><text fill="#eeeeee" stroke="none" font-family="Arial" font-size="24px" font-style="normal" font-weight="normal" text-decoration="none" x="400" y="210">UNREGISTERED</text><text fill="#eeeeee" stroke="none" font-family="Arial" font-size="24px" font-style="normal" font-weight="normal" text-decoration="none" x="400" y="240">UNREGISTERED</text><text fill="#eeeeee" stroke="none" font-family="Arial" font-size="24px" font-style="normal" font-weight="normal" text-decoration="none" x="400" y="270">UNREGISTERED</text><text fill="#eeeeee" stroke="none" font-family="Arial" font-size="24px" font-style="normal" font-weight="normal" text-decoration="none" x="400" y="300">UNREGISTERED</text><text fill="#eeeeee" stroke="none" font-family="Arial" font-size="24px" font-style="normal" font-weight="normal" text-decoration="none" x="400" y="330">UNREGISTERED</text><text fill="#eeeeee" stroke="none" font-family="Arial" font-size="24px" font-style="normal" font-weight="normal" text-decoration="none" x="400" y="360">UNREGISTERED</text><text fill="#eeeeee" stroke="none" font-family="Arial" font-size="24px" font-style="normal" font-weight="normal" text-decoration="none" x="400" y="390">UNREGISTERED</text><text fill="#eeeeee" stroke="none" font-family="Arial" font-size="24px" font-style="normal" font-weight="normal" text-decoration="none" x="400" y="420">UNREGISTERED</text><text fill="#eeeeee" stroke="none" font-family="Arial" font-size="24px" font-style="normal" font-weight="normal" text-decoration="none" x="400" y="450">UNREGISTERED</text><text fill="#eeeeee" stroke="none" font-family="Arial" font-size="24px" font-style="normal" font-weight="normal" text-decoration="none" x="400" y="480">UNREGISTERED</text><text fill="#eeeeee" stroke="none" font-family="Arial" font-size="24px" font-style="normal" font-weight="normal" text-decoration="none" x="400" y="510">UNREGISTERED</text><g transform="translate(-182,-158) scale(1,1)"><rect fill="#C0C0C0" stroke="none" x="447" y="175" width="288" height="496" opacity="0.2"/></g><g transform="translate(-182,-158) scale(1,1)"><rect fill="#ffffff" stroke="none" x="440" y="168" width="288" height="496"/></g><g transform="translate(-182,-158) scale(1,1)"><path fill="none" stroke="#000000" d="M 440 168 L 728 168 L 728 664 L 440 664 L 440 168 Z Z" stroke-miterlimit="10"/></g><g transform="translate(-182,-158) scale(1,1)"><g><path fill="none" stroke="none"/><text fill="#000000" stroke="none" font-family="Arial" font-size="13px" font-style="normal" font-weight="bold" text-decoration="none" x="510.452880859375" y="187.5">INFORMATION SYSTEM</text></g></g><g transform="translate(-182,-158) scale(1,1)"><path fill="#ffffff" stroke="none" d="M 202.26481906960228 497.68 C 202.26481906960228 492.886167936 206.15066139454774 489 210.944091796875 489 C 215.73752219920226 489 219.62336452414772 492.886167936 219.62336452414772 497.68 C 219.62336452414772 502.473832064 215.73752219920226 506.36 210.944091796875 506.36 C 206.15066139454774 506.36 202.26481906960228 502.473832064 202.26481906960228 497.68 Z"/></g><g transform="translate(-182,-158) scale(1,1)"><path fill="none" stroke="#000000" d="M 202.26481906960228 497.68 C 202.26481906960228 492.886167936 206.15066139454774 489 210.944091796875 489 C 215.73752219920226 489 219.62336452414772 492.886167936 219.62336452414772 497.68 C 219.62336452414772 502.473832064 215.73752219920226 506.36 210.944091796875 506.36 C 206.15066139454774 506.36 202.26481906960228 502.473832064 202.26481906960228 497.68 Z" stroke-miterlimit="10"/></g><g transform="translate(-182,-158) scale(1,1)"><path fill="none" stroke="#000000" d="M 210.944091796875 506.36 L 210.944091796875 523.64" stroke-miterlimit="10"/></g><g transform="translate(-182,-158) scale(1,1)"><path fill="none" stroke="#000000" d="M 201.75427361505683 512.84 L 220.13390997869317 512.84" stroke-miterlimit="10"/></g><g transform="translate(-182,-158) scale(1,1)"><path fill="none" stroke="#000000" d="M 210.944091796875 523.64 L 198.18045543323865 541" stroke-miterlimit="10"/></g><g transform="translate(-182,-158) scale(1,1)"><path fill="none" stroke="#000000" d="M 210.944091796875 523.64 L 223.70772816051135 541" stroke-miterlimit="10"/></g><g transform="translate(-182,-158) scale(1,1)"><g><path fill="none" stroke="none"/><text fill="#000000" stroke="none" font-family="Arial" font-size="13px" font-style="normal" font-weight="bold" text-decoration="none" x="197.693359375" y="561.5">Staff</text></g></g><g transform="translate(-182,-158) scale(1,1)"><path fill="#C0C0C0" stroke="none" d="M 495 624 C 495 614.6111584 542.4578112 607 601 607 C 659.5421888 607 707 614.6111584 707 624 C 707 633.3888416 659.5421888 641 601 641 C 542.4578112 641 495 633.3888416 495 624 Z" opacity="0.2"/></g><g transform="translate(-182,-158) scale(1,1)"><path fill="#ffffff" stroke="none" d="M 488 617 C 488 607.6111584 535.4578112 600 594 600 C 652.5421888 600 700 607.6111584 700 617 C 700 626.3888416 652.5421888 634 594 634 C 535.4578112 634 488 626.3888416 488 617 Z"/></g><g transform="translate(-182,-158) scale(1,1)"><path fill="none" stroke="#000000" d="M 488 617 C 488 607.6111584 535.4578112 600 594 600 C 652.5421888 600 700 607.6111584 700 617 C 700 626.3888416 652.5421888 634 594 634 C 535.4578112 634 488 626.3888416 488 617 Z" stroke-miterlimit="10"/></g><g transform="translate(-182,-158) scale(1,1)"><g><path fill="none" stroke="none"/><text fill="#000000" stroke="none" font-family="Arial" font-size="13px" font-style="normal" font-weight="bold" text-decoration="none" x="527.162353515625" y="624">Manage Form Instance</text></g></g><g transform="translate(-182,-158) scale(1,1)"><path fill="none" stroke="#000000" d="M 231 532 L 517 599" stroke-miterlimit="10"/></g><g transform="translate(-182,-158) scale(1,1)"><path fill="#ffffff" stroke="none" d="M 274.27434055397725 313.68 C 274.27434055397725 308.886167936 278.16018287892274 305 282.95361328125 305 C 287.74704368357726 305 291.63288600852275 308.886167936 291.63288600852275 313.68 C 291.63288600852275 318.473832064 287.74704368357726 322.36 282.95361328125 322.36 C 278.16018287892274 322.36 274.27434055397725 318.473832064 274.27434055397725 313.68 Z"/></g><g transform="translate(-182,-158) scale(1,1)"><path fill="none" stroke="#000000" d="M 274.27434055397725 313.68 C 274.27434055397725 308.886167936 278.16018287892274 305 282.95361328125 305 C 287.74704368357726 305 291.63288600852275 308.886167936 291.63288600852275 313.68 C 291.63288600852275 318.473832064 287.74704368357726 322.36 282.95361328125 322.36 C 278.16018287892274 322.36 274.27434055397725 318.473832064 274.27434055397725 313.68 Z" stroke-miterlimit="10"/></g><g transform="translate(-182,-158) scale(1,1)"><path fill="none" stroke="#000000" d="M 282.95361328125 322.36 L 282.95361328125 339.64" stroke-miterlimit="10"/></g><g transform="translate(-182,-158) scale(1,1)"><path fill="none" stroke="#000000" d="M 273.76379509943183 328.84 L 292.14343146306817 328.84" stroke-miterlimit="10"/></g><g transform="translate(-182,-158) scale(1,1)"><path fill="none" stroke="#000000" d="M 282.95361328125 339.64 L 270.18997691761365 357" stroke-miterlimit="10"/></g><g transform="translate(-182,-158) scale(1,1)"><path fill="none" stroke="#000000" d="M 282.95361328125 339.64 L 295.71724964488635 357" stroke-miterlimit="10"/></g><g transform="translate(-182,-158) scale(1,1)"><g><path fill="none" stroke="none"/><text fill="#000000" stroke="none" font-family="Arial" font-size="13px" font-style="normal" font-weight="bold" text-decoration="none" x="269.22998046875" y="377.5">User</text></g></g><g transform="translate(-182,-158) scale(1,1)"><path fill="none" stroke="#000000" d="M 226 487 L 266 384" stroke-miterlimit="10"/></g><g transform="translate(-182,-158) scale(1,1)"><path fill="#FFFFFF" stroke="none" d="M 266.4900401893288 405.99454160951854 L 266 384 L 250.79402121974806 399.8990002621086"/></g><g transform="translate(-182,-158) scale(1,1)"><path fill="none" stroke="#000000" d="M 266.4900401893288 405.99454160951854 L 266 384 L 250.79402121974806 399.8990002621086 L 266.4900401893288 405.99454160951854" stroke-miterlimit="10"/></g><g transform="translate(-182,-158) scale(1,1)"><path fill="#C0C0C0" stroke="none" d="M 527 240 C 527 230.6111584 563.7126464 223 609 223 C 654.2873536 223 691 230.6111584 691 240 C 691 249.3888416 654.2873536 257 609 257 C 563.7126464 257 527 249.3888416 527 240 Z" opacity="0.2"/></g><g transform="translate(-182,-158) scale(1,1)"><path fill="#ffffff" stroke="none" d="M 520 233 C 520 223.6111584 556.7126464 216 602 216 C 647.2873536 216 684 223.6111584 684 233 C 684 242.3888416 647.2873536 250 602 250 C 556.7126464 250 520 242.3888416 520 233 Z"/></g><g transform="translate(-182,-158) scale(1,1)"><path fill="none" stroke="#000000" d="M 520 233 C 520 223.6111584 556.7126464 216 602 216 C 647.2873536 216 684 223.6111584 684 233 C 684 242.3888416 647.2873536 250 602 250 C 556.7126464 250 520 242.3888416 520 233 Z" stroke-miterlimit="10"/></g><g transform="translate(-182,-158) scale(1,1)"><g><path fill="none" stroke="none"/><text fill="#000000" stroke="none" font-family="Arial" font-size="13px" font-style="normal" font-weight="bold" text-decoration="none" x="553.576904296875" y="240">Login to Account</text></g></g><g transform="translate(-182,-158) scale(1,1)"><path fill="none" stroke="#000000" d="M 303 336 L 550 251" stroke-miterlimit="10"/></g><g transform="translate(-182,-158) scale(1,1)"><path fill="#C0C0C0" stroke="none" d="M 519 320 C 519 310.6111584 555.936504 303 601.5 303 C 647.063496 303 684 310.6111584 684 320 C 684 329.3888416 647.063496 337 601.5 337 C 555.936504 337 519 329.3888416 519 320 Z" opacity="0.2"/></g><g transform="translate(-182,-158) scale(1,1)"><path fill="#ffffff" stroke="none" d="M 512 313 C 512 303.6111584 548.936504 296 594.5 296 C 640.063496 296 677 303.6111584 677 313 C 677 322.3888416 640.063496 330 594.5 330 C 548.936504 330 512 322.3888416 512 313 Z"/></g><g transform="translate(-182,-158) scale(1,1)"><path fill="none" stroke="#000000" d="M 512 313 C 512 303.6111584 548.936504 296 594.5 296 C 640.063496 296 677 303.6111584 677 313 C 677 322.3888416 640.063496 330 594.5 330 C 548.936504 330 512 322.3888416 512 313 Z" stroke-miterlimit="10"/></g><g transform="translate(-182,-158) scale(1,1)"><g><path fill="none" stroke="none"/><text fill="#000000" stroke="none" font-family="Arial" font-size="13px" font-style="normal" font-weight="bold" text-decoration="none" x="545.004150390625" y="320">Register Account</text></g></g><g transform="translate(-182,-158) scale(1,1)"><path fill="none" stroke="#000000" d="M 303 341 L 511 321" stroke-miterlimit="10"/></g><g transform="translate(-182,-158) scale(1,1)"><path fill="#C0C0C0" stroke="none" d="M 503 392 C 503 382.6111584 537.697928 375 580.5 375 C 623.302072 375 658 382.6111584 658 392 C 658 401.3888416 623.302072 409 580.5 409 C 537.697928 409 503 401.3888416 503 392 Z" opacity="0.2"/></g><g transform="translate(-182,-158) scale(1,1)"><path fill="#ffffff" stroke="none" d="M 496 385 C 496 375.6111584 530.697928 368 573.5 368 C 616.302072 368 651 375.6111584 651 385 C 651 394.3888416 616.302072 402 573.5 402 C 530.697928 402 496 394.3888416 496 385 Z"/></g><g transform="translate(-182,-158) scale(1,1)"><path fill="none" stroke="#000000" d="M 496 385 C 496 375.6111584 530.697928 368 573.5 368 C 616.302072 368 651 375.6111584 651 385 C 651 394.3888416 616.302072 402 573.5 402 C 530.697928 402 496 394.3888416 496 385 Z" stroke-miterlimit="10"/></g><g transform="translate(-182,-158) scale(1,1)"><g><path fill="none" stroke="none"/><text fill="#000000" stroke="none" font-family="Arial" font-size="13px" font-style="normal" font-weight="bold" text-decoration="none" x="526.175048828125" y="392">Reset Password</text></g></g><g transform="translate(-182,-158) scale(1,1)"><path fill="none" stroke="#000000" d="M 303 346 L 495 374" stroke-miterlimit="10"/></g><g transform="translate(-182,-158) scale(1,1)"><path fill="#C0C0C0" stroke="none" d="M 503 536 C 503 526.6111584 543.9659408 519 594.5 519 C 645.0340592 519 686 526.6111584 686 536 C 686 545.3888416 645.0340592 553 594.5 553 C 543.9659408 553 503 545.3888416 503 536 Z" opacity="0.2"/></g><g transform="translate(-182,-158) scale(1,1)"><path fill="#ffffff" stroke="none" d="M 496 529 C 496 519.6111584 536.9659408 512 587.5 512 C 638.0340592 512 679 519.6111584 679 529 C 679 538.3888416 638.0340592 546 587.5 546 C 536.9659408 546 496 538.3888416 496 529 Z"/></g><g transform="translate(-182,-158) scale(1,1)"><path fill="none" stroke="#000000" d="M 496 529 C 496 519.6111584 536.9659408 512 587.5 512 C 638.0340592 512 679 519.6111584 679 529 C 679 538.3888416 638.0340592 546 587.5 546 C 536.9659408 546 496 538.3888416 496 529 Z" stroke-miterlimit="10"/></g><g transform="translate(-182,-158) scale(1,1)"><g><path fill="none" stroke="none"/><text fill="#000000" stroke="none" font-family="Arial" font-size="13px" font-style="normal" font-weight="bold" text-decoration="none" x="530.425048828125" y="536">Search Form Model</text></g></g><g transform="translate(-182,-158) scale(1,1)"><path fill="none" stroke="#000000" d="M 303 356 L 557 511" stroke-miterlimit="10"/></g><g transform="translate(-182,-158) scale(1,1)"><path fill="#C0C0C0" stroke="none" d="M 503 464 C 503 454.6111584 537.4740704 447 580 447 C 622.5259296 447 657 454.6111584 657 464 C 657 473.3888416 622.5259296 481 580 481 C 537.4740704 481 503 473.3888416 503 464 Z" opacity="0.2"/></g><g transform="translate(-182,-158) scale(1,1)"><path fill="#ffffff" stroke="none" d="M 496 457 C 496 447.6111584 530.4740704 440 573 440 C 615.5259296 440 650 447.6111584 650 457 C 650 466.3888416 615.5259296 474 573 474 C 530.4740704 474 496 466.3888416 496 457 Z"/></g><g transform="translate(-182,-158) scale(1,1)"><path fill="none" stroke="#000000" d="M 496 457 C 496 447.6111584 530.4740704 440 573 440 C 615.5259296 440 650 447.6111584 650 457 C 650 466.3888416 615.5259296 474 573 474 C 530.4740704 474 496 466.3888416 496 457 Z" stroke-miterlimit="10"/></g><g transform="translate(-182,-158) scale(1,1)"><g><path fill="none" stroke="none"/><text fill="#000000" stroke="none" font-family="Arial" font-size="13px" font-style="normal" font-weight="bold" text-decoration="none" x="527.826904296875" y="464">Logout Account</text></g></g><g transform="translate(-182,-158) scale(1,1)"><path fill="none" stroke="#000000" d="M 303 351 L 527 439" stroke-miterlimit="10"/></g></g></svg>