<svg version="1.1" xmlns="http://www.w3.org/2000/svg" xmlns:xlink="http://www.w3.org/1999/xlink" width="596" height="428"><defs/><g><text fill="#eeeeee" stroke="none" font-family="Arial" font-size="24px" font-style="normal" font-weight="normal" text-decoration="none" x="0" y="0">UNREGISTERED</text><text fill="#eeeeee" stroke="none" font-family="Arial" font-size="24px" font-style="normal" font-weight="normal" text-decoration="none" x="0" y="30">UNREGISTERED</text><text fill="#eeeeee" stroke="none" font-family="Arial" font-size="24px" font-style="normal" font-weight="normal" text-decoration="none" x="0" y="60">UNREGISTERED</text><text fill="#eeeeee" stroke="none" font-family="Arial" font-size="24px" font-style="normal" font-weight="normal" text-decoration="none" x="0" y="90">UNREGISTERED</text><text fill="#eeeeee" stroke="none" font-family="Arial" font-size="24px" font-style="normal" font-weight="normal" text-decoration="none" x="0" y="120">UNREGISTERED</text><text fill="#eeeeee" stroke="none" font-family="Arial" font-size="24px" font-style="normal" font-weight="normal" text-decoration="none" x="0" y="150">UNREGISTERED</text><text fill="#eeeeee" stroke="none" font-family="Arial" font-size="24px" font-style="normal" font-weight="normal" text-decoration="none" x="0" y="180">UNREGISTERED</text><text fill="#eeeeee" stroke="none" font-family="Arial" font-size="24px" font-style="normal" font-weight="normal" text-decoration="none" x="0" y="210">UNREGISTERED</text><text fill="#eeeeee" stroke="none" font-family="Arial" font-size="24px" font-style="normal" font-weight="normal" text-decoration="none" x="0" y="240">UNREGISTERED</text><text fill="#eeeeee" stroke="none" font-family="Arial" font-size="24px" font-style="normal" font-weight="normal" text-decoration="none" x="0" y="270">UNREGISTERED</text><text fill="#eeeeee" stroke="none" font-family="Arial" font-size="24px" font-style="normal" font-weight="normal" text-decoration="none" x="0" y="300">UNREGISTERED</text><text fill="#eeeeee" stroke="none" font-family="Arial" font-size="24px" font-style="normal" font-weight="normal" text-decoration="none" x="0" y="330">UNREGISTERED</text><text fill="#eeeeee" stroke="none" font-family="Arial" font-size="24px" font-style="normal" font-weight="normal" text-decoration="none" x="0" y="360">UNREGISTERED</text><text fill="#eeeeee" stroke="none" font-family="Arial" font-size="24px" font-style="normal" font-weight="normal" text-decoration="none" x="0" y="390">UNREGISTERED</text><text fill="#eeeeee" stroke="none" font-family="Arial" font-size="24px" font-style="normal" font-weight="normal" text-decoration="none" x="0" y="420">UNREGISTERED</text><text fill="#eeeeee" stroke="none" font-family="Arial" font-size="24px" font-style="normal" font-weight="normal" text-decoration="none" x="200" y="0">UNREGISTERED</text><text fill="#eeeeee" stroke="none" font-family="Arial" font-size="24px" font-style="normal" font-weight="normal" text-decoration="none" x="200" y="30">UNREGISTERED</text><text fill="#eeeeee" stroke="none" font-family="Arial" font-size="24px" font-style="normal" font-weight="normal" text-decoration="none" x="200" y="60">UNREGISTERED</text><text fill="#eeeeee" stroke="none" font-family="Arial" font-size="24px" font-style="normal" font-weight="normal" text-decoration="none" x="200" y="90">UNREGISTERED</text><text fill="#eeeeee" stroke="none" font-family="Arial" font-size="24px" font-style="normal" font-weight="normal" text-decoration="none" x="200" y="120">UNREGISTERED</text><text fill="#eeeeee" stroke="none" font-family="Arial" font-size="24px" font-style="normal" font-weight="normal" text-decoration="none" x="200" y="150">UNREGISTERED</text><text fill="#eeeeee" stroke="none" font-family="Arial" font-size="24px" font-style="normal" font-weight="normal" text-decoration="none" x="200" y="180">UNREGISTERED</text><text fill="#eeeeee" stroke="none" font-family="Arial" font-size="24px" font-style="normal" font-weight="normal" text-decoration="none" x="200" y="210">UNREGISTERED</text><text fill="#eeeeee" stroke="none" font-family="Arial" font-size="24px" font-style="normal" font-weight="normal" text-decoration="none" x="200" y="240">UNREGISTERED</text><text fill="#eeeeee" stroke="none" font-family="Arial" font-size="24px" font-style="normal" font-weight="normal" text-decoration="none" x="200" y="270">UNREGISTERED</text><text fill="#eeeeee" stroke="none" font-family="Arial" font-size="24px" font-style="normal" font-weight="normal" text-decoration="none" x="200" y="300">UNREGISTERED</text><text fill="#eeeeee" stroke="none" font-family="Arial" font-size="24px" font-style="normal" font-weight="normal" text-decoration="none" x="200" y="330">UNREGISTERED</text><text fill="#eeeeee" stroke="none" font-family="Arial" font-size="24px" font-style="normal" font-weight="normal" text-decoration="none" x="200" y="360">UNREGISTERED</text><text fill="#eeeeee" stroke="none" font-family="Arial" font-size="24px" font-style="normal" font-weight="normal" text-decoration="none" x="200" y="390">UNREGISTERED</text><text fill="#eeeeee" stroke="none" font-family="Arial" font-size="24px" font-style="normal" font-weight="normal" text-decoration="none" x="200" y="420">UNREGISTERED</text><text fill="#eeeeee" stroke="none" font-family="Arial" font-size="24px" font-style="normal" font-weight="normal" text-decoration="none" x="400" y="0">UNREGISTERED</text><text fill="#eeeeee" stroke="none" font-family="Arial" font-size="24px" font-style="normal" font-weight="normal" text-decoration="none" x="400" y="30">UNREGISTERED</text><text fill="#eeeeee" stroke="none" font-family="Arial" font-size="24px" font-style="normal" font-weight="normal" text-decoration="none" x="400" y="60">UNREGISTERED</text><text fill="#eeeeee" stroke="none" font-family="Arial" font-size="24px" font-style="normal" font-weight="normal" text-decoration="none" x="400" y="90">UNREGISTERED</text><text fill="#eeeeee" stroke="none" font-family="Arial" font-size="24px" font-style="normal" font-weight="normal" text-decoration="none" x="400" y="120">UNREGISTERED</text><text fill="#eeeeee" stroke="none" font-family="Arial" font-size="24px" font-style="normal" font-weight="normal" text-decoration="none" x="400" y="150">UNREGISTERED</text><text fill="#eeeeee" stroke="none" font-family="Arial" font-size="24px" font-style="normal" font-weight="normal" text-decoration="none" x="400" y="180">UNREGISTERED</text><text fill="#eeeeee" stroke="none" font-family="Arial" font-size="24px" font-style="normal" font-weight="normal" text-decoration="none" x="400" y="210">UNREGISTERED</text><text fill="#eeeeee" stroke="none" font-family="Arial" font-size="24px" font-style="normal" font-weight="normal" text-decoration="none" x="400" y="240">UNREGISTERED</text><text fill="#eeeeee" stroke="none" font-family="Arial" font-size="24px" font-style="normal" font-weight="normal" text-decoration="none" x="400" y="270">UNREGISTERED</text><text fill="#eeeeee" stroke="none" font-family="Arial" font-size="24px" font-style="normal" font-weight="normal" text-decoration="none" x="400" y="300">UNREGISTERED</text><text fill="#eeeeee" stroke="none" font-family="Arial" font-size="24px" font-style="normal" font-weight="normal" text-decoration="none" x="400" y="330">UNREGISTERED</text><text fill="#eeeeee" stroke="none" font-family="Arial" font-size="24px" font-style="normal" font-weight="normal" text-decoration="none" x="400" y="360">UNREGISTERED</text><text fill="#eeeeee" stroke="none" font-family="Arial" font-size="24px" font-style="normal" font-weight="normal" text-decoration="none" x="400" y="390">UNREGISTERED</text><text fill="#eeeeee" stroke="none" font-family="Arial" font-size="24px" font-style="normal" font-weight="normal" text-decoration="none" x="400" y="420">UNREGISTERED</text><g transform="translate(-62,-142) scale(1,1)"><rect fill="#C0C0C0" stroke="none" x="327" y="159" width="328" height="408" opacity="0.2"/></g><g transform="translate(-62,-142) scale(1,1)"><rect fill="#ffffff" stroke="none" x="320" y="152" width="328" height="408"/></g><g transform="translate(-62,-142) scale(1,1)"><path fill="none" stroke="#000000" d="M 320 152 L 648 152 L 648 560 L 320 560 L 320 152 Z Z" stroke-miterlimit="10"/></g><g transform="translate(-62,-142) scale(1,1)"><g><path fill="none" stroke="none"/><text fill="#000000" stroke="none" font-family="Arial" font-size="13px" font-style="normal" font-weight="bold" text-decoration="none" x="410.452880859375" y="171.5">INFORMATION SYSTEM</text></g></g><g transform="translate(-62,-142) scale(1,1)"><path fill="#ffffff" stroke="none" d="M 88.04118625710227 217.68 C 88.04118625710227 212.886167936 91.92702858204773 209 96.720458984375 209 C 101.51388938670227 209 105.39973171164773 212.886167936 105.39973171164773 217.68 C 105.39973171164773 222.47383206400002 101.51388938670227 226.36 96.720458984375 226.36 C 91.92702858204773 226.36 88.04118625710227 222.47383206400002 88.04118625710227 217.68 Z"/></g><g transform="translate(-62,-142) scale(1,1)"><path fill="none" stroke="#000000" d="M 88.04118625710227 217.68 C 88.04118625710227 212.886167936 91.92702858204773 209 96.720458984375 209 C 101.51388938670227 209 105.39973171164773 212.886167936 105.39973171164773 217.68 C 105.39973171164773 222.47383206400002 101.51388938670227 226.36 96.720458984375 226.36 C 91.92702858204773 226.36 88.04118625710227 222.47383206400002 88.04118625710227 217.68 Z" stroke-miterlimit="10"/></g><g transform="translate(-62,-142) scale(1,1)"><path fill="none" stroke="#000000" d="M 96.720458984375 226.36 L 96.720458984375 243.64" stroke-miterlimit="10"/></g><g transform="translate(-62,-142) scale(1,1)"><path fill="none" stroke="#000000" d="M 87.53064080255682 232.84 L 105.91027716619318 232.84" stroke-miterlimit="10"/></g><g transform="translate(-62,-142) scale(1,1)"><path fill="none" stroke="#000000" d="M 96.720458984375 243.64 L 83.95682262073863 261" stroke-miterlimit="10"/></g><g transform="translate(-62,-142) scale(1,1)"><path fill="none" stroke="#000000" d="M 96.720458984375 243.64 L 109.48409534801137 261" stroke-miterlimit="10"/></g><g transform="translate(-62,-142) scale(1,1)"><g><path fill="none" stroke="none"/><text fill="#000000" stroke="none" font-family="Arial" font-size="13px" font-style="normal" font-weight="bold" text-decoration="none" x="78.29638671875" y="281.5">Admin</text></g></g><g transform="translate(-62,-142) scale(1,1)"><path fill="#C0C0C0" stroke="none" d="M 399 424 C 399 414.6111584 448.02481439999997 407 508.5 407 C 568.9751856 407 618 414.6111584 618 424 C 618 433.3888416 568.9751856 441 508.5 441 C 448.02481439999997 441 399 433.3888416 399 424 Z" opacity="0.2"/></g><g transform="translate(-62,-142) scale(1,1)"><path fill="#ffffff" stroke="none" d="M 392 417 C 392 407.6111584 441.02481439999997 400 501.5 400 C 561.9751856 400 611 407.6111584 611 417 C 611 426.3888416 561.9751856 434 501.5 434 C 441.02481439999997 434 392 426.3888416 392 417 Z"/></g><g transform="translate(-62,-142) scale(1,1)"><path fill="none" stroke="#000000" d="M 392 417 C 392 407.6111584 441.02481439999997 400 501.5 400 C 561.9751856 400 611 407.6111584 611 417 C 611 426.3888416 561.9751856 434 501.5 434 C 441.02481439999997 434 392 426.3888416 392 417 Z" stroke-miterlimit="10"/></g><g transform="translate(-62,-142) scale(1,1)"><g><path fill="none" stroke="none"/><text fill="#000000" stroke="none" font-family="Arial" font-size="13px" font-style="normal" font-weight="bold" text-decoration="none" x="432.86279296875" y="424">Manage Form Structure</text></g></g><g transform="translate(-62,-142) scale(1,1)"><path fill="none" stroke="#000000" d="M 122 258 L 458 399" stroke-miterlimit="10"/></g><g transform="translate(-62,-142) scale(1,1)"><path fill="#C0C0C0" stroke="none" d="M 439 288 C 439 278.6111584 467.4299152 271 502.5 271 C 537.5700848 271 566 278.6111584 566 288 C 566 297.3888416 537.5700848 305 502.5 305 C 467.4299152 305 439 297.3888416 439 288 Z" opacity="0.2"/></g><g transform="translate(-62,-142) scale(1,1)"><path fill="#ffffff" stroke="none" d="M 432 281 C 432 271.6111584 460.4299152 264 495.5 264 C 530.5700848 264 559 271.6111584 559 281 C 559 290.3888416 530.5700848 298 495.5 298 C 460.4299152 298 432 290.3888416 432 281 Z"/></g><g transform="translate(-62,-142) scale(1,1)"><path fill="none" stroke="#000000" d="M 432 281 C 432 271.6111584 460.4299152 264 495.5 264 C 530.5700848 264 559 271.6111584 559 281 C 559 290.3888416 530.5700848 298 495.5 298 C 460.4299152 298 432 290.3888416 432 281 Z" stroke-miterlimit="10"/></g><g transform="translate(-62,-142) scale(1,1)"><g><path fill="none" stroke="none"/><text fill="#000000" stroke="none" font-family="Arial" font-size="13px" font-style="normal" font-weight="bold" text-decoration="none" x="456.953857421875" y="288">Manage Staff</text></g></g><g transform="translate(-62,-142) scale(1,1)"><path fill="none" stroke="#000000" d="M 122 249 L 431 276" stroke-miterlimit="10"/></g><g transform="translate(-62,-142) scale(1,1)"><path fill="#C0C0C0" stroke="none" d="M 439 344 C 439 334.6111584 469.6684912 327 507.5 327 C 545.3315088 327 576 334.6111584 576 344 C 576 353.3888416 545.3315088 361 507.5 361 C 469.6684912 361 439 353.3888416 439 344 Z" opacity="0.2"/></g><g transform="translate(-62,-142) scale(1,1)"><path fill="#ffffff" stroke="none" d="M 432 337 C 432 327.6111584 462.6684912 320 500.5 320 C 538.3315088 320 569 327.6111584 569 337 C 569 346.3888416 538.3315088 354 500.5 354 C 462.6684912 354 432 346.3888416 432 337 Z"/></g><g transform="translate(-62,-142) scale(1,1)"><path fill="none" stroke="#000000" d="M 432 337 C 432 327.6111584 462.6684912 320 500.5 320 C 538.3315088 320 569 327.6111584 569 337 C 569 346.3888416 538.3315088 354 500.5 354 C 462.6684912 354 432 346.3888416 432 337 Z" stroke-miterlimit="10"/></g><g transform="translate(-62,-142) scale(1,1)"><g><path fill="none" stroke="none"/><text fill="#000000" stroke="none" font-family="Arial" font-size="13px" font-style="normal" font-weight="bold" text-decoration="none" x="458.58642578125" y="344">Manage Client</text></g></g><g transform="translate(-62,-142) scale(1,1)"><path fill="none" stroke="#000000" d="M 122 253 L 431 322" stroke-miterlimit="10"/></g><g transform="translate(-62,-142) scale(1,1)"><path fill="#C0C0C0" stroke="none" d="M 447 472 C 447 462.6111584 475.2060576 455 510 455 C 544.7939424 455 573 462.6111584 573 472 C 573 481.3888416 544.7939424 489 510 489 C 475.2060576 489 447 481.3888416 447 472 Z" opacity="0.2"/></g><g transform="translate(-62,-142) scale(1,1)"><path fill="#ffffff" stroke="none" d="M 440 465 C 440 455.6111584 468.2060576 448 503 448 C 537.7939424 448 566 455.6111584 566 465 C 566 474.3888416 537.7939424 482 503 482 C 468.2060576 482 440 474.3888416 440 465 Z"/></g><g transform="translate(-62,-142) scale(1,1)"><path fill="none" stroke="#000000" d="M 440 465 C 440 455.6111584 468.2060576 448 503 448 C 537.7939424 448 566 455.6111584 566 465 C 566 474.3888416 537.7939424 482 503 482 C 468.2060576 482 440 474.3888416 440 465 Z" stroke-miterlimit="10"/></g><g transform="translate(-62,-142) scale(1,1)"><g><path fill="none" stroke="none"/><text fill="#000000" stroke="none" font-family="Arial" font-size="13px" font-style="normal" font-weight="bold" text-decoration="none" x="464.33642578125" y="472">Manage Role</text></g></g><g transform="translate(-62,-142) scale(1,1)"><path fill="none" stroke="#000000" d="M 122 269 L 300 416 L 439 450" stroke-miterlimit="10"/></g></g></svg>