<svg version="1.1" xmlns="http://www.w3.org/2000/svg" xmlns:xlink="http://www.w3.org/1999/xlink" width="524" height="516"><defs/><g><text fill="#eeeeee" stroke="none" font-family="Arial" font-size="24px" font-style="normal" font-weight="normal" text-decoration="none" x="0" y="0">UNREGISTERED</text><text fill="#eeeeee" stroke="none" font-family="Arial" font-size="24px" font-style="normal" font-weight="normal" text-decoration="none" x="0" y="30">UNREGISTERED</text><text fill="#eeeeee" stroke="none" font-family="Arial" font-size="24px" font-style="normal" font-weight="normal" text-decoration="none" x="0" y="60">UNREGISTERED</text><text fill="#eeeeee" stroke="none" font-family="Arial" font-size="24px" font-style="normal" font-weight="normal" text-decoration="none" x="0" y="90">UNREGISTERED</text><text fill="#eeeeee" stroke="none" font-family="Arial" font-size="24px" font-style="normal" font-weight="normal" text-decoration="none" x="0" y="120">UNREGISTERED</text><text fill="#eeeeee" stroke="none" font-family="Arial" font-size="24px" font-style="normal" font-weight="normal" text-decoration="none" x="0" y="150">UNREGISTERED</text><text fill="#eeeeee" stroke="none" font-family="Arial" font-size="24px" font-style="normal" font-weight="normal" text-decoration="none" x="0" y="180">UNREGISTERED</text><text fill="#eeeeee" stroke="none" font-family="Arial" font-size="24px" font-style="normal" font-weight="normal" text-decoration="none" x="0" y="210">UNREGISTERED</text><text fill="#eeeeee" stroke="none" font-family="Arial" font-size="24px" font-style="normal" font-weight="normal" text-decoration="none" x="0" y="240">UNREGISTERED</text><text fill="#eeeeee" stroke="none" font-family="Arial" font-size="24px" font-style="normal" font-weight="normal" text-decoration="none" x="0" y="270">UNREGISTERED</text><text fill="#eeeeee" stroke="none" font-family="Arial" font-size="24px" font-style="normal" font-weight="normal" text-decoration="none" x="0" y="300">UNREGISTERED</text><text fill="#eeeeee" stroke="none" font-family="Arial" font-size="24px" font-style="normal" font-weight="normal" text-decoration="none" x="0" y="330">UNREGISTERED</text><text fill="#eeeeee" stroke="none" font-family="Arial" font-size="24px" font-style="normal" font-weight="normal" text-decoration="none" x="0" y="360">UNREGISTERED</text><text fill="#eeeeee" stroke="none" font-family="Arial" font-size="24px" font-style="normal" font-weight="normal" text-decoration="none" x="0" y="390">UNREGISTERED</text><text fill="#eeeeee" stroke="none" font-family="Arial" font-size="24px" font-style="normal" font-weight="normal" text-decoration="none" x="0" y="420">UNREGISTERED</text><text fill="#eeeeee" stroke="none" font-family="Arial" font-size="24px" font-style="normal" font-weight="normal" text-decoration="none" x="0" y="450">UNREGISTERED</text><text fill="#eeeeee" stroke="none" font-family="Arial" font-size="24px" font-style="normal" font-weight="normal" text-decoration="none" x="0" y="480">UNREGISTERED</text><text fill="#eeeeee" stroke="none" font-family="Arial" font-size="24px" font-style="normal" font-weight="normal" text-decoration="none" x="0" y="510">UNREGISTERED</text><text fill="#eeeeee" stroke="none" font-family="Arial" font-size="24px" font-style="normal" font-weight="normal" text-decoration="none" x="200" y="0">UNREGISTERED</text><text fill="#eeeeee" stroke="none" font-family="Arial" font-size="24px" font-style="normal" font-weight="normal" text-decoration="none" x="200" y="30">UNREGISTERED</text><text fill="#eeeeee" stroke="none" font-family="Arial" font-size="24px" font-style="normal" font-weight="normal" text-decoration="none" x="200" y="60">UNREGISTERED</text><text fill="#eeeeee" stroke="none" font-family="Arial" font-size="24px" font-style="normal" font-weight="normal" text-decoration="none" x="200" y="90">UNREGISTERED</text><text fill="#eeeeee" stroke="none" font-family="Arial" font-size="24px" font-style="normal" font-weight="normal" text-decoration="none" x="200" y="120">UNREGISTERED</text><text fill="#eeeeee" stroke="none" font-family="Arial" font-size="24px" font-style="normal" font-weight="normal" text-decoration="none" x="200" y="150">UNREGISTERED</text><text fill="#eeeeee" stroke="none" font-family="Arial" font-size="24px" font-style="normal" font-weight="normal" text-decoration="none" x="200" y="180">UNREGISTERED</text><text fill="#eeeeee" stroke="none" font-family="Arial" font-size="24px" font-style="normal" font-weight="normal" text-decoration="none" x="200" y="210">UNREGISTERED</text><text fill="#eeeeee" stroke="none" font-family="Arial" font-size="24px" font-style="normal" font-weight="normal" text-decoration="none" x="200" y="240">UNREGISTERED</text><text fill="#eeeeee" stroke="none" font-family="Arial" font-size="24px" font-style="normal" font-weight="normal" text-decoration="none" x="200" y="270">UNREGISTERED</text><text fill="#eeeeee" stroke="none" font-family="Arial" font-size="24px" font-style="normal" font-weight="normal" text-decoration="none" x="200" y="300">UNREGISTERED</text><text fill="#eeeeee" stroke="none" font-family="Arial" font-size="24px" font-style="normal" font-weight="normal" text-decoration="none" x="200" y="330">UNREGISTERED</text><text fill="#eeeeee" stroke="none" font-family="Arial" font-size="24px" font-style="normal" font-weight="normal" text-decoration="none" x="200" y="360">UNREGISTERED</text><text fill="#eeeeee" stroke="none" font-family="Arial" font-size="24px" font-style="normal" font-weight="normal" text-decoration="none" x="200" y="390">UNREGISTERED</text><text fill="#eeeeee" stroke="none" font-family="Arial" font-size="24px" font-style="normal" font-weight="normal" text-decoration="none" x="200" y="420">UNREGISTERED</text><text fill="#eeeeee" stroke="none" font-family="Arial" font-size="24px" font-style="normal" font-weight="normal" text-decoration="none" x="200" y="450">UNREGISTERED</text><text fill="#eeeeee" stroke="none" font-family="Arial" font-size="24px" font-style="normal" font-weight="normal" text-decoration="none" x="200" y="480">UNREGISTERED</text><text fill="#eeeeee" stroke="none" font-family="Arial" font-size="24px" font-style="normal" font-weight="normal" text-decoration="none" x="200" y="510">UNREGISTERED</text><text fill="#eeeeee" stroke="none" font-family="Arial" font-size="24px" font-style="normal" font-weight="normal" text-decoration="none" x="400" y="0">UNREGISTERED</text><text fill="#eeeeee" stroke="none" font-family="Arial" font-size="24px" font-style="normal" font-weight="normal" text-decoration="none" x="400" y="30">UNREGISTERED</text><text fill="#eeeeee" stroke="none" font-family="Arial" font-size="24px" font-style="normal" font-weight="normal" text-decoration="none" x="400" y="60">UNREGISTERED</text><text fill="#eeeeee" stroke="none" font-family="Arial" font-size="24px" font-style="normal" font-weight="normal" text-decoration="none" x="400" y="90">UNREGISTERED</text><text fill="#eeeeee" stroke="none" font-family="Arial" font-size="24px" font-style="normal" font-weight="normal" text-decoration="none" x="400" y="120">UNREGISTERED</text><text fill="#eeeeee" stroke="none" font-family="Arial" font-size="24px" font-style="normal" font-weight="normal" text-decoration="none" x="400" y="150">UNREGISTERED</text><text fill="#eeeeee" stroke="none" font-family="Arial" font-size="24px" font-style="normal" font-weight="normal" text-decoration="none" x="400" y="180">UNREGISTERED</text><text fill="#eeeeee" stroke="none" font-family="Arial" font-size="24px" font-style="normal" font-weight="normal" text-decoration="none" x="400" y="210">UNREGISTERED</text><text fill="#eeeeee" stroke="none" font-family="Arial" font-size="24px" font-style="normal" font-weight="normal" text-decoration="none" x="400" y="240">UNREGISTERED</text><text fill="#eeeeee" stroke="none" font-family="Arial" font-size="24px" font-style="normal" font-weight="normal" text-decoration="none" x="400" y="270">UNREGISTERED</text><text fill="#eeeeee" stroke="none" font-family="Arial" font-size="24px" font-style="normal" font-weight="normal" text-decoration="none" x="400" y="300">UNREGISTERED</text><text fill="#eeeeee" stroke="none" font-family="Arial" font-size="24px" font-style="normal" font-weight="normal" text-decoration="none" x="400" y="330">UNREGISTERED</text><text fill="#eeeeee" stroke="none" font-family="Arial" font-size="24px" font-style="normal" font-weight="normal" text-decoration="none" x="400" y="360">UNREGISTERED</text><text fill="#eeeeee" stroke="none" font-family="Arial" font-size="24px" font-style="normal" font-weight="normal" text-decoration="none" x="400" y="390">UNREGISTERED</text><text fill="#eeeeee" stroke="none" font-family="Arial" font-size="24px" font-style="normal" font-weight="normal" text-decoration="none" x="400" y="420">UNREGISTERED</text><text fill="#eeeeee" stroke="none" font-family="Arial" font-size="24px" font-style="normal" font-weight="normal" text-decoration="none" x="400" y="450">UNREGISTERED</text><text fill="#eeeeee" stroke="none" font-family="Arial" font-size="24px" font-style="normal" font-weight="normal" text-decoration="none" x="400" y="480">UNREGISTERED</text><text fill="#eeeeee" stroke="none" font-family="Arial" font-size="24px" font-style="normal" font-weight="normal" text-decoration="none" x="400" y="510">UNREGISTERED</text><g transform="translate(-286,-46) scale(1,1)"><rect fill="#ffffff" stroke="none" x="448" y="56" width="352" height="496"/></g><g transform="translate(-286,-46) scale(1,1)"><path fill="none" stroke="#000000" d="M 448 56 L 800 56 L 800 552 L 448 552 L 448 56 Z Z" stroke-miterlimit="10"/></g><g transform="translate(-286,-46) scale(1,1)"><g><path fill="none" stroke="none"/><text fill="#000000" stroke="none" font-family="Arial" font-size="13px" font-style="normal" font-weight="bold" text-decoration="none" x="550.452880859375" y="75.5">INFORMATION SYSTEM</text></g></g><g transform="translate(-286,-46) scale(1,1)"><path fill="#ffffff" stroke="none" d="M 309.87663547585225 441.68 C 309.87663547585225 436.886167936 313.76247780079774 433 318.555908203125 433 C 323.34933860545226 433 327.23518093039775 436.886167936 327.23518093039775 441.68 C 327.23518093039775 446.473832064 323.34933860545226 450.36 318.555908203125 450.36 C 313.76247780079774 450.36 309.87663547585225 446.473832064 309.87663547585225 441.68 Z"/></g><g transform="translate(-286,-46) scale(1,1)"><path fill="none" stroke="#000000" d="M 309.87663547585225 441.68 C 309.87663547585225 436.886167936 313.76247780079774 433 318.555908203125 433 C 323.34933860545226 433 327.23518093039775 436.886167936 327.23518093039775 441.68 C 327.23518093039775 446.473832064 323.34933860545226 450.36 318.555908203125 450.36 C 313.76247780079774 450.36 309.87663547585225 446.473832064 309.87663547585225 441.68 Z" stroke-miterlimit="10"/></g><g transform="translate(-286,-46) scale(1,1)"><path fill="none" stroke="#000000" d="M 318.555908203125 450.36 L 318.555908203125 467.64" stroke-miterlimit="10"/></g><g transform="translate(-286,-46) scale(1,1)"><path fill="none" stroke="#000000" d="M 309.36609002130683 456.84 L 327.74572638494317 456.84" stroke-miterlimit="10"/></g><g transform="translate(-286,-46) scale(1,1)"><path fill="none" stroke="#000000" d="M 318.555908203125 467.64 L 305.79227183948865 485" stroke-miterlimit="10"/></g><g transform="translate(-286,-46) scale(1,1)"><path fill="none" stroke="#000000" d="M 318.555908203125 467.64 L 331.31954456676135 485" stroke-miterlimit="10"/></g><g transform="translate(-286,-46) scale(1,1)"><g><path fill="none" stroke="none"/><text fill="#000000" stroke="none" font-family="Arial" font-size="13px" font-style="normal" font-weight="bold" text-decoration="none" x="301.937744140625" y="505.5">Client</text></g></g><g transform="translate(-286,-46) scale(1,1)"><path fill="#C0C0C0" stroke="none" d="M 567 176 C 567 166.6111584 603.7126464 159 649 159 C 694.2873536 159 731 166.6111584 731 176 C 731 185.3888416 694.2873536 193 649 193 C 603.7126464 193 567 185.3888416 567 176 Z" opacity="0.2"/></g><g transform="translate(-286,-46) scale(1,1)"><path fill="#ffffff" stroke="none" d="M 560 169 C 560 159.6111584 596.7126464 152 642 152 C 687.2873536 152 724 159.6111584 724 169 C 724 178.3888416 687.2873536 186 642 186 C 596.7126464 186 560 178.3888416 560 169 Z"/></g><g transform="translate(-286,-46) scale(1,1)"><path fill="none" stroke="#000000" d="M 560 169 C 560 159.6111584 596.7126464 152 642 152 C 687.2873536 152 724 159.6111584 724 169 C 724 178.3888416 687.2873536 186 642 186 C 596.7126464 186 560 178.3888416 560 169 Z" stroke-miterlimit="10"/></g><g transform="translate(-286,-46) scale(1,1)"><g><path fill="none" stroke="none"/><text fill="#000000" stroke="none" font-family="Arial" font-size="13px" font-style="normal" font-weight="bold" text-decoration="none" x="593.576904296875" y="176">Login to Account</text></g></g><g transform="translate(-286,-46) scale(1,1)"><path fill="#C0C0C0" stroke="none" d="M 559 256 C 559 246.6111584 595.936504 239 641.5 239 C 687.063496 239 724 246.6111584 724 256 C 724 265.3888416 687.063496 273 641.5 273 C 595.936504 273 559 265.3888416 559 256 Z" opacity="0.2"/></g><g transform="translate(-286,-46) scale(1,1)"><path fill="#ffffff" stroke="none" d="M 552 249 C 552 239.6111584 588.936504 232 634.5 232 C 680.063496 232 717 239.6111584 717 249 C 717 258.3888416 680.063496 266 634.5 266 C 588.936504 266 552 258.3888416 552 249 Z"/></g><g transform="translate(-286,-46) scale(1,1)"><path fill="none" stroke="#000000" d="M 552 249 C 552 239.6111584 588.936504 232 634.5 232 C 680.063496 232 717 239.6111584 717 249 C 717 258.3888416 680.063496 266 634.5 266 C 588.936504 266 552 258.3888416 552 249 Z" stroke-miterlimit="10"/></g><g transform="translate(-286,-46) scale(1,1)"><g><path fill="none" stroke="none"/><text fill="#000000" stroke="none" font-family="Arial" font-size="13px" font-style="normal" font-weight="bold" text-decoration="none" x="585.004150390625" y="256">Register Account</text></g></g><g transform="translate(-286,-46) scale(1,1)"><path fill="#C0C0C0" stroke="none" d="M 559 320 C 559 310.6111584 593.697928 303 636.5 303 C 679.302072 303 714 310.6111584 714 320 C 714 329.3888416 679.302072 337 636.5 337 C 593.697928 337 559 329.3888416 559 320 Z" opacity="0.2"/></g><g transform="translate(-286,-46) scale(1,1)"><path fill="#ffffff" stroke="none" d="M 552 313 C 552 303.6111584 586.697928 296 629.5 296 C 672.302072 296 707 303.6111584 707 313 C 707 322.3888416 672.302072 330 629.5 330 C 586.697928 330 552 322.3888416 552 313 Z"/></g><g transform="translate(-286,-46) scale(1,1)"><path fill="none" stroke="#000000" d="M 552 313 C 552 303.6111584 586.697928 296 629.5 296 C 672.302072 296 707 303.6111584 707 313 C 707 322.3888416 672.302072 330 629.5 330 C 586.697928 330 552 322.3888416 552 313 Z" stroke-miterlimit="10"/></g><g transform="translate(-286,-46) scale(1,1)"><g><path fill="none" stroke="none"/><text fill="#000000" stroke="none" font-family="Arial" font-size="13px" font-style="normal" font-weight="bold" text-decoration="none" x="582.175048828125" y="320">Reset Password</text></g></g><g transform="translate(-286,-46) scale(1,1)"><path fill="#C0C0C0" stroke="none" d="M 567 416 C 567 406.6111584 601.4740704 399 644 399 C 686.5259296 399 721 406.6111584 721 416 C 721 425.3888416 686.5259296 433 644 433 C 601.4740704 433 567 425.3888416 567 416 Z" opacity="0.2"/></g><g transform="translate(-286,-46) scale(1,1)"><path fill="#ffffff" stroke="none" d="M 560 409 C 560 399.6111584 594.4740704 392 637 392 C 679.5259296 392 714 399.6111584 714 409 C 714 418.3888416 679.5259296 426 637 426 C 594.4740704 426 560 418.3888416 560 409 Z"/></g><g transform="translate(-286,-46) scale(1,1)"><path fill="none" stroke="#000000" d="M 560 409 C 560 399.6111584 594.4740704 392 637 392 C 679.5259296 392 714 399.6111584 714 409 C 714 418.3888416 679.5259296 426 637 426 C 594.4740704 426 560 418.3888416 560 409 Z" stroke-miterlimit="10"/></g><g transform="translate(-286,-46) scale(1,1)"><g><path fill="none" stroke="none"/><text fill="#000000" stroke="none" font-family="Arial" font-size="13px" font-style="normal" font-weight="bold" text-decoration="none" x="591.826904296875" y="416">Logout Account</text></g></g><g transform="translate(-286,-46) scale(1,1)"><path fill="#ffffff" stroke="none" d="M 314.27434055397725 249.68 C 314.27434055397725 244.886167936 318.16018287892274 241 322.95361328125 241 C 327.74704368357726 241 331.63288600852275 244.886167936 331.63288600852275 249.68 C 331.63288600852275 254.47383206400002 327.74704368357726 258.36 322.95361328125 258.36 C 318.16018287892274 258.36 314.27434055397725 254.47383206400002 314.27434055397725 249.68 Z"/></g><g transform="translate(-286,-46) scale(1,1)"><path fill="none" stroke="#000000" d="M 314.27434055397725 249.68 C 314.27434055397725 244.886167936 318.16018287892274 241 322.95361328125 241 C 327.74704368357726 241 331.63288600852275 244.886167936 331.63288600852275 249.68 C 331.63288600852275 254.47383206400002 327.74704368357726 258.36 322.95361328125 258.36 C 318.16018287892274 258.36 314.27434055397725 254.47383206400002 314.27434055397725 249.68 Z" stroke-miterlimit="10"/></g><g transform="translate(-286,-46) scale(1,1)"><path fill="none" stroke="#000000" d="M 322.95361328125 258.36 L 322.95361328125 275.64" stroke-miterlimit="10"/></g><g transform="translate(-286,-46) scale(1,1)"><path fill="none" stroke="#000000" d="M 313.76379509943183 264.84 L 332.14343146306817 264.84" stroke-miterlimit="10"/></g><g transform="translate(-286,-46) scale(1,1)"><path fill="none" stroke="#000000" d="M 322.95361328125 275.64 L 310.18997691761365 293" stroke-miterlimit="10"/></g><g transform="translate(-286,-46) scale(1,1)"><path fill="none" stroke="#000000" d="M 322.95361328125 275.64 L 335.71724964488635 293" stroke-miterlimit="10"/></g><g transform="translate(-286,-46) scale(1,1)"><g><path fill="none" stroke="none"/><text fill="#000000" stroke="none" font-family="Arial" font-size="13px" font-style="normal" font-weight="bold" text-decoration="none" x="309.22998046875" y="313.5">User</text></g></g><g transform="translate(-286,-46) scale(1,1)"><path fill="none" stroke="#000000" d="M 319 431 L 321 320" stroke-miterlimit="10"/></g><g transform="translate(-286,-46) scale(1,1)"><path fill="#FFFFFF" stroke="none" d="M 329.05150614409683 340.473720932248 L 321 320 L 312.2161676859425 340.1703815005696"/></g><g transform="translate(-286,-46) scale(1,1)"><path fill="none" stroke="#000000" d="M 329.05150614409683 340.473720932248 L 321 320 L 312.2161676859425 340.1703815005696 L 329.05150614409683 340.473720932248" stroke-miterlimit="10"/></g><g transform="translate(-286,-46) scale(1,1)"><path fill="none" stroke="#000000" d="M 343 272 L 590 187" stroke-miterlimit="10"/></g><g transform="translate(-286,-46) scale(1,1)"><path fill="none" stroke="#000000" d="M 343 277 L 551 257" stroke-miterlimit="10"/></g><g transform="translate(-286,-46) scale(1,1)"><path fill="none" stroke="#000000" d="M 343 281 L 551 304" stroke-miterlimit="10"/></g><g transform="translate(-286,-46) scale(1,1)"><path fill="none" stroke="#000000" d="M 343 288 L 593 391" stroke-miterlimit="10"/></g><g transform="translate(-286,-46) scale(1,1)"><path fill="#C0C0C0" stroke="none" d="M 535 480 C 535 470.6111584 582.4578112 463 641 463 C 699.5421888 463 747 470.6111584 747 480 C 747 489.3888416 699.5421888 497 641 497 C 582.4578112 497 535 489.3888416 535 480 Z" opacity="0.2"/></g><g transform="translate(-286,-46) scale(1,1)"><path fill="#ffffff" stroke="none" d="M 528 473 C 528 463.6111584 575.4578112 456 634 456 C 692.5421888 456 740 463.6111584 740 473 C 740 482.3888416 692.5421888 490 634 490 C 575.4578112 490 528 482.3888416 528 473 Z"/></g><g transform="translate(-286,-46) scale(1,1)"><path fill="none" stroke="#000000" d="M 528 473 C 528 463.6111584 575.4578112 456 634 456 C 692.5421888 456 740 463.6111584 740 473 C 740 482.3888416 692.5421888 490 634 490 C 575.4578112 490 528 482.3888416 528 473 Z" stroke-miterlimit="10"/></g><g transform="translate(-286,-46) scale(1,1)"><g><path fill="none" stroke="none"/><text fill="#000000" stroke="none" font-family="Arial" font-size="13px" font-style="normal" font-weight="bold" text-decoration="none" x="567.162353515625" y="480">Manage Form Instance</text></g></g><g transform="translate(-286,-46) scale(1,1)"><path fill="none" stroke="#000000" d="M 342 471 L 527 472" stroke-miterlimit="10"/></g></g></svg>